ExploreSansMonoVariable-HeavyItalic.ufo
<glyph name="exclam" format="2">
  <advance width="600"/>
  <unicode hex="0021"/>
  <outline>
    <contour>
      <point x="263" y="715" type="line"/>
      <point x="453" y="715" type="line"/>
      <point x="326" y="243" type="line"/>
      <point x="184" y="243" type="line"/>
    </contour>
    <contour>
      <point x="245" y="197" type="curve" smooth="yes"/>
      <point x="301" y="197"/>
      <point x="337" y="150"/>
      <point x="325" y="94" type="curve" smooth="yes"/>
      <point x="313" y="38"/>
      <point x="257" y="-8"/>
      <point x="201" y="-8" type="curve" smooth="yes"/>
      <point x="145" y="-8"/>
      <point x="109" y="38"/>
      <point x="121" y="94" type="curve" smooth="yes"/>
      <point x="133" y="150"/>
      <point x="189" y="197"/>
    </contour>
  </outline>
</glyph>
<glyph name="numbersign" format="2">
  <advance width="600"/>
  <unicode hex="0023"/>
  <outline>
    <contour>
      <point x="226" y="724" type="line"/>
      <point x="383" y="724" type="line"/>
      <point x="318" y="575" type="line"/>
      <point x="389" y="575" type="line"/>
      <point x="454" y="724" type="line"/>
      <point x="610" y="724" type="line"/>
      <point x="545" y="575" type="line"/>
      <point x="633" y="575" type="line"/>
      <point x="599" y="415" type="line"/>
      <point x="515" y="415" type="line"/>
      <point x="471" y="313" type="line"/>
      <point x="578" y="313" type="line"/>
      <point x="544" y="153" type="line"/>
      <point x="441" y="153" type="line"/>
      <point x="374" y="0" type="line"/>
      <point x="217" y="0" type="line"/>
      <point x="284" y="153" type="line"/>
      <point x="214" y="153" type="line"/>
      <point x="147" y="0" type="line"/>
      <point x="-10" y="0" type="line"/>
      <point x="57" y="153" type="line"/>
      <point x="-32" y="153" type="line"/>
      <point x="2" y="313" type="line"/>
      <point x="87" y="313" type="line"/>
      <point x="131" y="415" type="line"/>
      <point x="23" y="415" type="line"/>
      <point x="57" y="575" type="line"/>
      <point x="161" y="575" type="line"/>
    </contour>
    <contour>
      <point x="314" y="313" type="line"/>
      <point x="359" y="415" type="line"/>
      <point x="288" y="415" type="line"/>
      <point x="243" y="313" type="line"/>
    </contour>
  </outline>
</glyph>
<glyph name="dollar" format="2">
  <advance width="600"/>
  <unicode hex="0024"/>
  <outline>
    <contour>
      <point x="138" y="12" type="line"/>
      <point x="330" y="12" type="line"/>
      <point x="298" y="-139" type="line"/>
      <point x="106" y="-139" type="line"/>
    </contour>
    <contour>
      <point x="338" y="847" type="line"/>
      <point x="530" y="847" type="line"/>
      <point x="498" y="696" type="line"/>
      <point x="306" y="696" type="line"/>
    </contour>
    <component base="S"/>
  </outline>
</glyph>
<glyph name="percent" format="2">
  <advance width="600"/>
  <unicode hex="0025"/>
  <outline>
    <contour>
      <point x="569" y="571" type="line"/>
      <point x="605" y="503" type="line"/>
      <point x="33" y="140" type="line"/>
      <point x="-4" y="209" type="line"/>
    </contour>
    <contour>
      <point x="427" y="332" type="curve" smooth="yes"/>
      <point x="523" y="332"/>
      <point x="572" y="263"/>
      <point x="551" y="162" type="curve" smooth="yes"/>
      <point x="529" y="60"/>
      <point x="451" y="-8"/>
      <point x="355" y="-8" type="curve" smooth="yes"/>
      <point x="259" y="-8"/>
      <point x="209" y="60"/>
      <point x="231" y="162" type="curve" smooth="yes"/>
      <point x="252" y="263"/>
      <point x="331" y="332"/>
    </contour>
    <contour>
      <point x="406" y="231" type="curve" smooth="yes"/>
      <point x="371" y="231"/>
      <point x="347" y="207"/>
      <point x="337" y="160" type="curve" smooth="yes"/>
      <point x="327" y="114"/>
      <point x="341" y="92"/>
      <point x="377" y="92" type="curve" smooth="yes"/>
      <point x="413" y="92"/>
      <point x="435" y="114"/>
      <point x="445" y="160" type="curve" smooth="yes"/>
      <point x="455" y="206"/>
      <point x="441" y="231"/>
    </contour>
    <contour>
      <point x="223" y="616" type="curve" smooth="yes"/>
      <point x="186" y="616"/>
      <point x="164" y="593"/>
      <point x="154" y="545" type="curve" smooth="yes"/>
      <point x="144" y="499"/>
      <point x="157" y="477"/>
      <point x="194" y="477" type="curve" smooth="yes"/>
      <point x="230" y="477"/>
      <point x="252" y="498"/>
      <point x="262" y="546" type="curve" smooth="yes"/>
      <point x="272" y="592"/>
      <point x="259" y="616"/>
    </contour>
    <contour>
      <point x="245" y="716" type="curve" smooth="yes"/>
      <point x="341" y="716"/>
      <point x="390" y="649"/>
      <point x="369" y="548" type="curve" smooth="yes"/>
      <point x="347" y="446"/>
      <point x="267" y="376"/>
      <point x="171" y="376" type="curve" smooth="yes"/>
      <point x="77" y="376"/>
      <point x="27" y="445"/>
      <point x="49" y="548" type="curve" smooth="yes"/>
      <point x="70" y="649"/>
      <point x="149" y="716"/>
    </contour>
  </outline>
</glyph>
<glyph name="ampersand" format="2">
  <advance width="600"/>
  <unicode hex="0026"/>
  <outline>
    <contour>
      <point x="380" y="716" type="curve" smooth="yes"/>
      <point x="430" y="716"/>
      <point x="473" y="711"/>
      <point x="511" y="690" type="curve"/>
      <point x="448" y="577" type="line"/>
      <point x="433" y="585"/>
      <point x="417" y="593"/>
      <point x="392" y="593" type="curve" smooth="yes"/>
      <point x="352" y="593"/>
      <point x="324" y="569"/>
      <point x="317" y="535" type="curve" smooth="yes"/>
      <point x="308" y="491"/>
      <point x="333" y="446"/>
      <point x="347" y="417" type="curve" smooth="yes"/>
      <point x="547" y="0" type="line"/>
      <point x="372" y="0" type="line"/>
      <point x="194" y="376" type="line" smooth="yes"/>
      <point x="168" y="430"/>
      <point x="138" y="464"/>
      <point x="152" y="531" type="curve" smooth="yes"/>
      <point x="175" y="641"/>
      <point x="264" y="716"/>
    </contour>
    <contour>
      <point x="255" y="444" type="line"/>
      <point x="257" y="336" type="line"/>
      <point x="229" y="336" type="line" smooth="yes"/>
      <point x="182" y="336"/>
      <point x="146" y="289"/>
      <point x="132" y="225" type="curve" smooth="yes"/>
      <point x="117" y="153"/>
      <point x="146" y="122"/>
      <point x="186" y="122" type="curve" smooth="yes"/>
      <point x="234" y="122"/>
      <point x="265" y="143"/>
      <point x="318" y="237" type="curve" smooth="yes"/>
      <point x="426" y="431" type="line"/>
      <point x="596" y="415" type="line"/>
      <point x="570" y="293" type="line"/>
      <point x="489" y="301" type="line"/>
      <point x="466" y="257"/>
      <point x="446" y="218"/>
      <point x="418" y="166" type="curve" smooth="yes"/>
      <point x="370" y="77"/>
      <point x="275" y="-8"/>
      <point x="154" y="-8" type="curve" smooth="yes"/>
      <point x="11" y="-8"/>
      <point x="-53" y="68"/>
      <point x="-20" y="225" type="curve" smooth="yes"/>
      <point x="5" y="343"/>
      <point x="99" y="444"/>
      <point x="205" y="444" type="curve" smooth="yes"/>
    </contour>
  </outline>
</glyph>
<glyph name="parenleft" format="2">
  <advance width="600"/>
  <unicode hex="0028"/>
  <outline>
    <contour>
      <point x="428" y="800" type="curve"/>
      <point x="612" y="800" type="line"/>
      <point x="523" y="734"/>
      <point x="384" y="600"/>
      <point x="335" y="371" type="curve" smooth="yes"/>
      <point x="286" y="141"/>
      <point x="358" y="-3"/>
      <point x="428" y="-64" type="curve"/>
      <point x="249" y="-64" type="line"/>
      <point x="156" y="27"/>
      <point x="118" y="176"/>
      <point x="159" y="371" type="curve" smooth="yes"/>
      <point x="197" y="548"/>
      <point x="305" y="715"/>
    </contour>
  </outline>
</glyph>
<glyph name="parenright" format="2">
  <advance width="600"/>
  <unicode hex="0029"/>
  <outline>
    <contour>
      <point x="212" y="800" type="curve"/>
      <point x="396" y="800" type="line"/>
      <point x="483" y="715"/>
      <point x="521" y="548"/>
      <point x="483" y="371" type="curve" smooth="yes"/>
      <point x="442" y="176"/>
      <point x="338" y="27"/>
      <point x="207" y="-64" type="curve"/>
      <point x="28" y="-64" type="line"/>
      <point x="124" y="-3"/>
      <point x="258" y="141"/>
      <point x="307" y="371" type="curve" smooth="yes"/>
      <point x="356" y="600"/>
      <point x="273" y="734"/>
    </contour>
  </outline>
</glyph>
<glyph name="asterisk" format="2">
  <advance width="600"/>
  <unicode hex="002A"/>
  <outline>
    <contour>
      <point x="287" y="806" type="line"/>
      <point x="416" y="806" type="line"/>
      <point x="393" y="696" type="line"/>
      <point x="379" y="667" type="line"/>
      <point x="410" y="682" type="line"/>
      <point x="527" y="713" type="line"/>
      <point x="540" y="601" type="line"/>
      <point x="398" y="558" type="line"/>
      <point x="368" y="558" type="line"/>
      <point x="390" y="538" type="line"/>
      <point x="443" y="439" type="line"/>
      <point x="331" y="372" type="line"/>
      <point x="289" y="470" type="line"/>
      <point x="285" y="496" type="line"/>
      <point x="271" y="470" type="line"/>
      <point x="187" y="372" type="line"/>
      <point x="103" y="439" type="line"/>
      <point x="199" y="539" type="line"/>
      <point x="226" y="559" type="line"/>
      <point x="195" y="559" type="line"/>
      <point x="77" y="601" type="line"/>
      <point x="135" y="713" type="line"/>
      <point x="244" y="681" type="line"/>
      <point x="265" y="667" type="line"/>
      <point x="264" y="696" type="line"/>
    </contour>
  </outline>
</glyph>
<glyph name="plus" format="2">
  <advance width="600"/>
  <unicode hex="002B"/>
  <outline>
    <contour>
      <point x="277" y="479" type="line"/>
      <point x="413" y="479" type="line"/>
      <point x="382" y="330" type="line"/>
      <point x="532" y="330" type="line"/>
      <point x="504" y="202" type="line"/>
      <point x="354" y="202" type="line"/>
      <point x="323" y="53" type="line"/>
      <point x="187" y="53" type="line"/>
      <point x="218" y="202" type="line"/>
      <point x="68" y="202" type="line"/>
      <point x="96" y="330" type="line"/>
      <point x="246" y="330" type="line"/>
    </contour>
  </outline>
</glyph>
<glyph name="comma" format="2">
  <advance width="600"/>
  <unicode hex="002C"/>
  <outline>
    <contour>
      <point x="221" y="11" type="line"/>
      <point x="223" y="19" type="line"/>
      <point x="127" y="32" type="line"/>
      <point x="156" y="166" type="line"/>
      <point x="415" y="137" type="line"/>
      <point x="391" y="27" type="line"/>
      <point x="286" y="-143" type="line"/>
      <point x="127" y="-143" type="line"/>
    </contour>
  </outline>
</glyph>
<glyph name="slash" format="2">
  <advance width="600"/>
  <unicode hex="002F"/>
  <outline>
    <contour>
      <point x="489" y="772" type="line"/>
      <point x="663" y="772" type="line"/>
      <point x="153" y="-34" type="line"/>
      <point x="-21" y="-34" type="line"/>
    </contour>
  </outline>
</glyph>
<glyph name="zero" format="2">
  <advance width="600"/>
  <unicode hex="0030"/>
  <outline>
    <contour>
      <point x="343" y="556" type="curve" smooth="yes"/>
      <point x="272" y="556"/>
      <point x="240" y="484"/>
      <point x="213" y="358" type="curve" smooth="yes"/>
      <point x="184" y="222"/>
      <point x="187" y="153"/>
      <point x="256" y="153" type="curve" smooth="yes"/>
      <point x="325" y="153"/>
      <point x="359" y="220"/>
      <point x="389" y="361" type="curve" smooth="yes"/>
      <point x="415" y="485"/>
      <point x="413" y="556"/>
    </contour>
    <contour>
      <point x="378" y="716" type="curve" smooth="yes"/>
      <point x="552" y="716"/>
      <point x="635" y="613"/>
      <point x="580" y="356" type="curve" smooth="yes"/>
      <point x="526" y="100"/>
      <point x="398" y="-7"/>
      <point x="223" y="-7" type="curve" smooth="yes"/>
      <point x="49" y="-7"/>
      <point x="-35" y="97"/>
      <point x="20" y="355" type="curve" smooth="yes"/>
      <point x="75" y="613"/>
      <point x="203" y="716"/>
    </contour>
    <contour>
      <point x="370" y="359" type="curve" smooth="yes"/>
      <point x="378" y="398"/>
      <point x="353" y="429"/>
      <point x="315" y="429" type="curve" smooth="yes"/>
      <point x="276" y="429"/>
      <point x="238" y="398"/>
      <point x="230" y="359" type="curve" smooth="yes"/>
      <point x="222" y="320"/>
      <point x="246" y="289"/>
      <point x="285" y="289" type="curve" smooth="yes"/>
      <point x="323" y="289"/>
      <point x="362" y="320"/>
    </contour>
  </outline>
</glyph>
<glyph name="one" format="2">
  <advance width="600"/>
  <unicode hex="0031"/>
  <outline>
    <contour>
      <point x="360" y="708" type="line"/>
      <point x="488" y="708" type="line"/>
      <point x="372" y="160" type="line"/>
      <point x="505" y="160" type="line"/>
      <point x="471" y="0" type="line"/>
      <point x="-21" y="0" type="line"/>
      <point x="13" y="160" type="line"/>
      <point x="180" y="160" type="line"/>
      <point x="255" y="516" type="line"/>
      <point x="71" y="450" type="line"/>
      <point x="108" y="620" type="line"/>
    </contour>
  </outline>
</glyph>
<glyph name="three" format="2">
  <advance width="600"/>
  <unicode hex="0033"/>
  <outline>
    <contour>
      <point x="163" y="708" type="line"/>
      <point x="624" y="708" type="line"/>
      <point x="600" y="596" type="line"/>
      <point x="400" y="422" type="line"/>
      <point x="469" y="422"/>
      <point x="548" y="377"/>
      <point x="548" y="262" type="curve" smooth="yes"/>
      <point x="548" y="58"/>
      <point x="381" y="-8"/>
      <point x="218" y="-8" type="curve" smooth="yes"/>
      <point x="108" y="-8"/>
      <point x="29" y="16"/>
      <point x="-35" y="68" type="curve"/>
      <point x="71" y="204" type="line"/>
      <point x="113" y="169"/>
      <point x="162" y="144"/>
      <point x="229" y="144" type="curve" smooth="yes"/>
      <point x="306" y="144"/>
      <point x="355" y="176"/>
      <point x="355" y="238" type="curve" smooth="yes"/>
      <point x="355" y="281"/>
      <point x="329" y="306"/>
      <point x="276" y="306" type="curve" smooth="yes"/>
      <point x="219" y="306" type="line"/>
      <point x="201" y="419" type="line"/>
      <point x="361" y="558" type="line"/>
      <point x="131" y="558" type="line"/>
    </contour>
  </outline>
</glyph>
<glyph name="five" format="2">
  <advance width="600"/>
  <unicode hex="0035"/>
  <outline>
    <contour>
      <point x="125" y="708" type="line"/>
      <point x="607" y="708" type="line"/>
      <point x="573" y="548" type="line"/>
      <point x="266" y="548" type="line"/>
      <point x="231" y="398" type="line"/>
      <point x="262" y="429"/>
      <point x="307" y="462"/>
      <point x="374" y="462" type="curve" smooth="yes"/>
      <point x="475" y="462"/>
      <point x="541" y="399"/>
      <point x="541" y="278" type="curve" smooth="yes"/>
      <point x="541" y="91"/>
      <point x="408" y="-8"/>
      <point x="227" y="-8" type="curve" smooth="yes"/>
      <point x="86" y="-8"/>
      <point x="20" y="28"/>
      <point x="-24" y="67" type="curve"/>
      <point x="63" y="209" type="line"/>
      <point x="92" y="182"/>
      <point x="144" y="147"/>
      <point x="233" y="147" type="curve" smooth="yes"/>
      <point x="299" y="147"/>
      <point x="348" y="176"/>
      <point x="348" y="255" type="curve" smooth="yes"/>
      <point x="348" y="301"/>
      <point x="323" y="324"/>
      <point x="280" y="324" type="curve" smooth="yes"/>
      <point x="240" y="324"/>
      <point x="220" y="305"/>
      <point x="202" y="276" type="curve"/>
      <point x="31" y="276" type="line"/>
    </contour>
  </outline>
</glyph>
<glyph name="six" format="2">
  <advance width="600"/>
  <unicode hex="0036"/>
  <outline>
    <contour>
      <point x="362" y="708" type="line"/>
      <point x="558" y="708" type="line"/>
      <point x="539" y="686"/>
      <point x="302" y="437"/>
      <point x="276" y="387" type="curve"/>
      <point x="313" y="428"/>
      <point x="351" y="453"/>
      <point x="415" y="453" type="curve" smooth="yes"/>
      <point x="492" y="453"/>
      <point x="570" y="399"/>
      <point x="570" y="281" type="curve" smooth="yes"/>
      <point x="570" y="55"/>
      <point x="380" y="-8"/>
      <point x="258" y="-8" type="curve" smooth="yes"/>
      <point x="123" y="-8"/>
      <point x="33" y="74"/>
      <point x="33" y="179" type="curve" smooth="yes"/>
      <point x="33" y="271"/>
      <point x="61" y="374"/>
      <point x="158" y="482" type="curve" smooth="yes"/>
    </contour>
    <contour>
      <point x="319" y="312" type="curve" smooth="yes"/>
      <point x="290" y="312"/>
      <point x="265" y="296"/>
      <point x="246" y="273" type="curve" smooth="yes"/>
      <point x="233" y="257"/>
      <point x="225" y="230"/>
      <point x="225" y="210" type="curve" smooth="yes"/>
      <point x="225" y="179"/>
      <point x="238" y="152"/>
      <point x="279" y="152" type="curve" smooth="yes"/>
      <point x="338" y="152"/>
      <point x="379" y="196"/>
      <point x="379" y="252" type="curve" smooth="yes"/>
      <point x="379" y="295"/>
      <point x="356" y="312"/>
    </contour>
  </outline>
</glyph>
<glyph name="eight" format="2">
  <advance width="600"/>
  <unicode hex="0038"/>
  <outline>
    <contour>
      <point x="375" y="716" type="curve" smooth="yes"/>
      <point x="540" y="716"/>
      <point x="621" y="645"/>
      <point x="595" y="524" type="curve" smooth="yes"/>
      <point x="580" y="455"/>
      <point x="539" y="403"/>
      <point x="467" y="371" type="curve"/>
      <point x="538" y="339"/>
      <point x="561" y="281"/>
      <point x="543" y="198" type="curve" smooth="yes"/>
      <point x="516" y="71"/>
      <point x="396" y="-7"/>
      <point x="221" y="-7" type="curve" smooth="yes"/>
      <point x="47" y="-7"/>
      <point x="-36" y="70"/>
      <point x="-9" y="198" type="curve" smooth="yes"/>
      <point x="9" y="282"/>
      <point x="55" y="340"/>
      <point x="138" y="371" type="curve"/>
      <point x="82" y="403"/>
      <point x="61" y="455"/>
      <point x="76" y="524" type="curve" smooth="yes"/>
      <point x="102" y="646"/>
      <point x="211" y="716"/>
    </contour>
    <contour>
      <point x="349" y="580" type="curve" smooth="yes"/>
      <point x="297" y="580"/>
      <point x="266" y="553"/>
      <point x="256" y="506" type="curve" smooth="yes"/>
      <point x="246" y="459"/>
      <point x="264" y="434"/>
      <point x="316" y="434" type="curve" smooth="yes"/>
      <point x="370" y="434"/>
      <point x="397" y="460"/>
      <point x="407" y="506" type="curve" smooth="yes"/>
      <point x="417" y="552"/>
      <point x="400" y="580"/>
    </contour>
    <contour>
      <point x="287" y="297" type="curve" smooth="yes"/>
      <point x="227" y="297"/>
      <point x="196" y="264"/>
      <point x="186" y="215" type="curve" smooth="yes"/>
      <point x="176" y="166"/>
      <point x="190" y="133"/>
      <point x="254" y="133" type="curve" smooth="yes"/>
      <point x="310" y="133"/>
      <point x="344" y="166"/>
      <point x="354" y="215" type="curve" smooth="yes"/>
      <point x="364" y="264"/>
      <point x="348" y="297"/>
    </contour>
  </outline>
</glyph>
<glyph name="nine" format="2">
  <advance width="600"/>
  <unicode hex="0039"/>
  <outline>
    <contour>
      <point x="347" y="716" type="curve" smooth="yes"/>
      <point x="482" y="716"/>
      <point x="572" y="634"/>
      <point x="572" y="529" type="curve" smooth="yes"/>
      <point x="572" y="437"/>
      <point x="544" y="334"/>
      <point x="447" y="226" type="curve" smooth="yes"/>
      <point x="243" y="0" type="line"/>
      <point x="47" y="0" type="line"/>
      <point x="66" y="22"/>
      <point x="303" y="271"/>
      <point x="329" y="321" type="curve"/>
      <point x="292" y="280"/>
      <point x="254" y="255"/>
      <point x="190" y="255" type="curve" smooth="yes"/>
      <point x="113" y="255"/>
      <point x="35" y="309"/>
      <point x="35" y="427" type="curve" smooth="yes"/>
      <point x="35" y="653"/>
      <point x="225" y="716"/>
    </contour>
    <contour>
      <point x="326" y="556" type="curve" smooth="yes"/>
      <point x="267" y="556"/>
      <point x="226" y="512"/>
      <point x="226" y="456" type="curve" smooth="yes"/>
      <point x="226" y="413"/>
      <point x="249" y="396"/>
      <point x="286" y="396" type="curve" smooth="yes"/>
      <point x="315" y="396"/>
      <point x="340" y="412"/>
      <point x="359" y="435" type="curve" smooth="yes"/>
      <point x="372" y="451"/>
      <point x="380" y="478"/>
      <point x="380" y="498" type="curve" smooth="yes"/>
      <point x="380" y="529"/>
      <point x="367" y="556"/>
    </contour>
  </outline>
</glyph>
<glyph name="colon" format="2">
  <advance width="600"/>
  <unicode hex="003A"/>
  <outline>
    <contour>
      <point x="333" y="528" type="curve" smooth="yes"/>
      <point x="389" y="528"/>
      <point x="427" y="494"/>
      <point x="413" y="426" type="curve" smooth="yes"/>
      <point x="399" y="359"/>
      <point x="346" y="324"/>
      <point x="290" y="324" type="curve" smooth="yes"/>
      <point x="234" y="324"/>
      <point x="195" y="359"/>
      <point x="209" y="426" type="curve" smooth="yes"/>
      <point x="223" y="494"/>
      <point x="277" y="528"/>
    </contour>
    <contour>
      <point x="262" y="196" type="curve" smooth="yes"/>
      <point x="318" y="196"/>
      <point x="357" y="162"/>
      <point x="343" y="94" type="curve" smooth="yes"/>
      <point x="329" y="27"/>
      <point x="275" y="-8"/>
      <point x="219" y="-8" type="curve" smooth="yes"/>
      <point x="163" y="-8"/>
      <point x="125" y="27"/>
      <point x="139" y="94" type="curve" smooth="yes"/>
      <point x="153" y="162"/>
      <point x="206" y="196"/>
    </contour>
  </outline>
</glyph>
<glyph name="less" format="2">
  <advance width="600"/>
  <unicode hex="003C"/>
  <outline>
    <contour>
      <point x="75" y="331" type="line"/>
      <point x="547" y="511" type="line"/>
      <point x="569" y="390" type="line"/>
      <point x="252" y="278" type="line"/>
      <point x="521" y="167" type="line"/>
      <point x="449" y="46" type="line"/>
      <point x="53" y="226" type="line"/>
    </contour>
  </outline>
</glyph>
<glyph name="equal" format="2">
  <advance width="600"/>
  <unicode hex="003D"/>
  <outline>
    <contour>
      <point x="100" y="454" type="line"/>
      <point x="584" y="454" type="line"/>
      <point x="556" y="324" type="line"/>
      <point x="72" y="324" type="line"/>
    </contour>
    <contour>
      <point x="56" y="248" type="line"/>
      <point x="540" y="248" type="line"/>
      <point x="512" y="118" type="line"/>
      <point x="28" y="118" type="line"/>
    </contour>
  </outline>
</glyph>
<glyph name="question" format="2">
  <advance width="600"/>
  <unicode hex="003F"/>
  <outline>
    <contour>
      <point x="357" y="732" type="curve" smooth="yes"/>
      <point x="504" y="732"/>
      <point x="595" y="668"/>
      <point x="567" y="537" type="curve" smooth="yes"/>
      <point x="549" y="452"/>
      <point x="500" y="406"/>
      <point x="426" y="370" type="curve" smooth="yes"/>
      <point x="361" y="338"/>
      <point x="338" y="318"/>
      <point x="330" y="280" type="curve" smooth="yes"/>
      <point x="326" y="262"/>
      <point x="324" y="253"/>
      <point x="321" y="240" type="curve"/>
      <point x="143" y="219" type="line"/>
      <point x="141" y="229"/>
      <point x="140" y="254"/>
      <point x="145" y="279" type="curve" smooth="yes"/>
      <point x="156" y="333"/>
      <point x="179" y="389"/>
      <point x="267" y="430" type="curve" smooth="yes"/>
      <point x="358" y="473"/>
      <point x="372" y="490"/>
      <point x="379" y="521" type="curve" smooth="yes"/>
      <point x="388" y="563"/>
      <point x="355" y="583"/>
      <point x="303" y="583" type="curve" smooth="yes"/>
      <point x="250" y="583"/>
      <point x="184" y="555"/>
      <point x="149" y="534" type="curve"/>
      <point x="99" y="659" type="line"/>
      <point x="183" y="707"/>
      <point x="261" y="732"/>
    </contour>
    <contour>
      <point x="231" y="196" type="curve" smooth="yes"/>
      <point x="296" y="196"/>
      <point x="324" y="144"/>
      <point x="313" y="92" type="curve" smooth="yes"/>
      <point x="302" y="39"/>
      <point x="250" y="-8"/>
      <point x="187" y="-8" type="curve" smooth="yes"/>
      <point x="121" y="-8"/>
      <point x="98" y="41"/>
      <point x="109" y="92" type="curve" smooth="yes"/>
      <point x="120" y="143"/>
      <point x="164" y="196"/>
    </contour>
  </outline>
</glyph>
<glyph name="at" format="2">
  <advance width="600"/>
  <unicode hex="0040"/>
  <outline>
    <contour>
      <point x="465" y="800" type="curve" smooth="yes"/>
      <point x="576" y="800"/>
      <point x="679" y="746"/>
      <point x="641" y="565" type="curve"/>
      <point x="529" y="265" type="line"/>
      <point x="569" y="197" type="line"/>
      <point x="462" y="118" type="line"/>
      <point x="430" y="174" type="line"/>
      <point x="404" y="143"/>
      <point x="355" y="116"/>
      <point x="285" y="116" type="curve" smooth="yes"/>
      <point x="194" y="116"/>
      <point x="152" y="188"/>
      <point x="177" y="305" type="curve" smooth="yes"/>
      <point x="208" y="456"/>
      <point x="307" y="577"/>
      <point x="429" y="577" type="curve" smooth="yes"/>
      <point x="466" y="577"/>
      <point x="495" y="557"/>
      <point x="503" y="540" type="curve"/>
      <point x="516" y="576" type="line"/>
      <point x="530" y="642"/>
      <point x="479" y="670"/>
      <point x="428" y="670" type="curve" smooth="yes"/>
      <point x="308" y="670"/>
      <point x="186" y="529"/>
      <point x="141" y="317" type="curve" smooth="yes"/>
      <point x="93" y="89"/>
      <point x="148" y="12"/>
      <point x="270" y="12" type="curve" smooth="yes"/>
      <point x="363" y="12"/>
      <point x="434" y="38"/>
      <point x="477" y="55" type="curve"/>
      <point x="451" y="-67" type="line"/>
      <point x="400" y="-87"/>
      <point x="319" y="-114"/>
      <point x="220" y="-114" type="curve" smooth="yes"/>
      <point x="34" y="-114"/>
      <point x="-68" y="-21"/>
      <point x="4" y="317" type="curve" smooth="yes"/>
      <point x="72" y="635"/>
      <point x="258" y="800"/>
    </contour>
    <contour>
      <point x="423" y="464" type="curve" smooth="yes"/>
      <point x="370" y="464"/>
      <point x="327" y="393"/>
      <point x="313" y="325" type="curve" smooth="yes"/>
      <point x="301" y="269"/>
      <point x="309" y="243"/>
      <point x="343" y="243" type="curve" smooth="yes"/>
      <point x="383" y="243"/>
      <point x="405" y="285"/>
      <point x="424" y="337" type="curve" smooth="yes"/>
      <point x="460" y="438" type="line"/>
      <point x="455" y="446"/>
      <point x="446" y="464"/>
    </contour>
  </outline>
</glyph>
<glyph name="A" format="2">
  <advance width="600"/>
  <unicode hex="0041"/>
  <anchor x="414" y="881" name="AccentCenter"/>
  <outline>
    <contour>
      <point x="269" y="708" type="line"/>
      <point x="485" y="708" type="line"/>
      <point x="531" y="0" type="line"/>
      <point x="347" y="0" type="line"/>
      <point x="347" y="153" type="line"/>
      <point x="176" y="153" type="line"/>
      <point x="110" y="0" type="line"/>
      <point x="-81" y="0" type="line"/>
    </contour>
    <contour>
      <point x="333" y="528" type="line"/>
      <point x="232" y="293" type="line"/>
      <point x="351" y="293" type="line"/>
      <point x="348" y="528" type="line"/>
    </contour>
  </outline>
</glyph>
<glyph name="B" format="2">
  <advance width="600"/>
  <unicode hex="0042"/>
  <outline>
    <contour>
      <point x="123" y="708" type="line"/>
      <point x="409" y="708" type="line" smooth="yes"/>
      <point x="533" y="708"/>
      <point x="623" y="642"/>
      <point x="599" y="531" type="curve" smooth="yes"/>
      <point x="579" y="436"/>
      <point x="525" y="390"/>
      <point x="463" y="373" type="curve"/>
      <point x="542" y="356"/>
      <point x="582" y="310"/>
      <point x="558" y="196" type="curve" smooth="yes"/>
      <point x="528" y="56"/>
      <point x="395" y="0"/>
      <point x="279" y="0" type="curve" smooth="yes"/>
      <point x="-27" y="0" type="line"/>
    </contour>
    <contour>
      <point x="281" y="548" type="line"/>
      <point x="258" y="437" type="line"/>
      <point x="323" y="437" type="line" smooth="yes"/>
      <point x="367" y="437"/>
      <point x="395" y="456"/>
      <point x="403" y="494" type="curve" smooth="yes"/>
      <point x="410" y="528"/>
      <point x="391" y="548"/>
      <point x="347" y="548" type="curve" smooth="yes"/>
    </contour>
    <contour>
      <point x="228" y="297" type="line"/>
      <point x="199" y="160" type="line"/>
      <point x="276" y="160" type="line" smooth="yes"/>
      <point x="332" y="160"/>
      <point x="367" y="179"/>
      <point x="377" y="228" type="curve" smooth="yes"/>
      <point x="388" y="279"/>
      <point x="362" y="297"/>
      <point x="302" y="297" type="curve" smooth="yes"/>
    </contour>
  </outline>
</glyph>
<glyph name="C" format="2">
  <advance width="600"/>
  <unicode hex="0043"/>
  <outline>
    <contour>
      <point x="416" y="716" type="curve" smooth="yes"/>
      <point x="491" y="716"/>
      <point x="556" y="698"/>
      <point x="616" y="657" type="curve"/>
      <point x="532" y="528" type="line"/>
      <point x="498" y="552"/>
      <point x="456" y="564"/>
      <point x="405" y="564" type="curve" smooth="yes"/>
      <point x="302" y="564"/>
      <point x="224" y="485"/>
      <point x="224" y="299" type="curve" smooth="yes"/>
      <point x="224" y="217"/>
      <point x="252" y="144"/>
      <point x="352" y="144" type="curve" smooth="yes"/>
      <point x="395" y="144"/>
      <point x="435" y="151"/>
      <point x="489" y="179" type="curve"/>
      <point x="514" y="44" type="line"/>
      <point x="442" y="8"/>
      <point x="393" y="-8"/>
      <point x="305" y="-8" type="curve" smooth="yes"/>
      <point x="136" y="-8"/>
      <point x="32" y="107"/>
      <point x="32" y="269" type="curve" smooth="yes"/>
      <point x="32" y="583"/>
      <point x="182" y="716"/>
    </contour>
  </outline>
</glyph>
<glyph name="D" format="2">
  <advance width="600"/>
  <unicode hex="0044"/>
  <outline>
    <contour>
      <point x="281" y="548" type="line"/>
      <point x="199" y="160" type="line"/>
      <point x="226" y="160" type="line" smooth="yes"/>
      <point x="332" y="160"/>
      <point x="403" y="277"/>
      <point x="403" y="447" type="curve" smooth="yes"/>
      <point x="403" y="525"/>
      <point x="363" y="548"/>
      <point x="310" y="548" type="curve" smooth="yes"/>
    </contour>
    <contour>
      <point x="123" y="708" type="line"/>
      <point x="339" y="708" type="line" smooth="yes"/>
      <point x="513" y="708"/>
      <point x="595" y="616"/>
      <point x="595" y="447" type="curve" smooth="yes"/>
      <point x="595" y="191"/>
      <point x="440" y="0"/>
      <point x="193" y="0" type="curve" smooth="yes"/>
      <point x="-27" y="0" type="line"/>
    </contour>
  </outline>
</glyph>
<glyph name="G" format="2">
  <advance width="600"/>
  <unicode hex="0047"/>
  <outline>
    <contour>
      <point x="407" y="716" type="curve" smooth="yes"/>
      <point x="500" y="716"/>
      <point x="565" y="691"/>
      <point x="618" y="646" type="curve"/>
      <point x="521" y="518" type="line"/>
      <point x="485" y="549"/>
      <point x="440" y="561"/>
      <point x="403" y="561" type="curve" smooth="yes"/>
      <point x="300" y="561"/>
      <point x="206" y="479"/>
      <point x="206" y="260" type="curve" smooth="yes"/>
      <point x="206" y="196"/>
      <point x="235" y="143"/>
      <point x="313" y="143" type="curve" smooth="yes"/>
      <point x="326" y="143"/>
      <point x="334" y="146"/>
      <point x="340" y="148" type="curve"/>
      <point x="369" y="282" type="line"/>
      <point x="284" y="282" type="line"/>
      <point x="313" y="421" type="line"/>
      <point x="582" y="421" type="line"/>
      <point x="493" y="30" type="line"/>
      <point x="460" y="19"/>
      <point x="412" y="-8"/>
      <point x="295" y="-8" type="curve" smooth="yes"/>
      <point x="133" y="-8"/>
      <point x="15" y="89"/>
      <point x="15" y="263" type="curve" smooth="yes"/>
      <point x="15" y="571"/>
      <point x="181" y="716"/>
    </contour>
  </outline>
</glyph>
<glyph name="J" format="2">
  <advance width="600"/>
  <unicode hex="004A"/>
  <outline>
    <contour>
      <point x="288" y="708" type="line"/>
      <point x="640" y="708" type="line"/>
      <point x="546" y="266" type="line" smooth="yes"/>
      <point x="508" y="87"/>
      <point x="405" y="-8"/>
      <point x="221" y="-8" type="curve" smooth="yes"/>
      <point x="86" y="-8"/>
      <point x="23" y="52"/>
      <point x="-9" y="91" type="curve"/>
      <point x="101" y="213" type="line"/>
      <point x="127" y="181"/>
      <point x="162" y="150"/>
      <point x="235" y="150" type="curve" smooth="yes"/>
      <point x="306" y="150"/>
      <point x="338" y="193"/>
      <point x="353" y="262" type="curve" smooth="yes"/>
      <point x="416" y="558" type="line"/>
      <point x="256" y="558" type="line"/>
    </contour>
  </outline>
</glyph>
<glyph name="K" format="2">
  <advance width="600"/>
  <unicode hex="004B"/>
  <outline>
    <contour>
      <point x="123" y="708" type="line"/>
      <point x="315" y="708" type="line"/>
      <point x="262" y="459" type="line"/>
      <point x="286" y="459" type="line"/>
      <point x="466" y="708" type="line"/>
      <point x="672" y="708" type="line"/>
      <point x="392" y="360" type="line"/>
      <point x="525" y="0" type="line"/>
      <point x="316" y="0" type="line"/>
      <point x="244" y="261" type="line"/>
      <point x="220" y="261" type="line"/>
      <point x="165" y="0" type="line"/>
      <point x="-27" y="0" type="line"/>
    </contour>
  </outline>
</glyph>
<glyph name="L" format="2">
  <advance width="600"/>
  <unicode hex="004C"/>
  <outline>
    <contour>
      <point x="139" y="708" type="line"/>
      <point x="331" y="708" type="line"/>
      <point x="215" y="160" type="line"/>
      <point x="513" y="160" type="line"/>
      <point x="479" y="0" type="line"/>
      <point x="-11" y="0" type="line"/>
    </contour>
  </outline>
</glyph>
<glyph name="M" format="2">
  <advance width="600"/>
  <unicode hex="004D"/>
  <outline>
    <contour>
      <point x="109" y="708" type="line"/>
      <point x="289" y="708" type="line"/>
      <point x="301" y="370" type="line"/>
      <point x="461" y="708" type="line"/>
      <point x="641" y="708" type="line"/>
      <point x="491" y="0" type="line"/>
      <point x="325" y="0" type="line"/>
      <point x="365" y="189" type="line"/>
      <point x="426" y="441" type="line"/>
      <point x="297" y="152" type="line"/>
      <point x="218" y="152" type="line"/>
      <point x="210" y="441" type="line"/>
      <point x="165" y="189" type="line"/>
      <point x="125" y="0" type="line"/>
      <point x="-41" y="0" type="line"/>
    </contour>
  </outline>
</glyph>
<glyph name="N" format="2">
  <advance width="600"/>
  <unicode hex="004E"/>
  <outline>
    <contour>
      <point x="115" y="708" type="line"/>
      <point x="309" y="708" type="line"/>
      <point x="381" y="354" type="line"/>
      <point x="456" y="708" type="line"/>
      <point x="635" y="708" type="line"/>
      <point x="485" y="0" type="line"/>
      <point x="291" y="0" type="line"/>
      <point x="223" y="374" type="line"/>
      <point x="144" y="0" type="line"/>
      <point x="-35" y="0" type="line"/>
    </contour>
  </outline>
</glyph>
<glyph name="O" format="2">
  <advance width="600"/>
  <unicode hex="004F"/>
  <anchor x="411" y="876" name="AccentCenter"/>
  <outline>
    <contour>
      <point x="371" y="716" type="curve" smooth="yes"/>
      <point x="507" y="716"/>
      <point x="585" y="640"/>
      <point x="585" y="470" type="curve" smooth="yes"/>
      <point x="585" y="188"/>
      <point x="437" y="-8"/>
      <point x="223" y="-8" type="curve" smooth="yes"/>
      <point x="70" y="-8"/>
      <point x="14" y="76"/>
      <point x="14" y="232" type="curve" smooth="yes"/>
      <point x="14" y="534"/>
      <point x="170" y="716"/>
    </contour>
    <contour>
      <point x="339" y="556" type="curve" smooth="yes"/>
      <point x="254" y="556"/>
      <point x="192" y="403"/>
      <point x="192" y="230" type="curve" smooth="yes"/>
      <point x="192" y="176"/>
      <point x="214" y="152"/>
      <point x="255" y="152" type="curve" smooth="yes"/>
      <point x="336" y="152"/>
      <point x="400" y="288"/>
      <point x="400" y="470" type="curve" smooth="yes"/>
      <point x="400" y="525"/>
      <point x="380" y="556"/>
    </contour>
  </outline>
</glyph>
<glyph name="P" format="2">
  <advance width="600"/>
  <unicode hex="0050"/>
  <outline>
    <contour>
      <point x="281" y="548" type="line"/>
      <point x="245" y="376" type="line"/>
      <point x="309" y="376" type="line" smooth="yes"/>
      <point x="366" y="376"/>
      <point x="399" y="407"/>
      <point x="411" y="464" type="curve" smooth="yes"/>
      <point x="422" y="518"/>
      <point x="401" y="548"/>
      <point x="345" y="548" type="curve" smooth="yes"/>
    </contour>
    <contour>
      <point x="123" y="708" type="line"/>
      <point x="400" y="708" type="line" smooth="yes"/>
      <point x="566" y="708"/>
      <point x="635" y="614"/>
      <point x="603" y="464" type="curve" smooth="yes"/>
      <point x="569" y="306"/>
      <point x="461" y="216"/>
      <point x="277" y="216" type="curve" smooth="yes"/>
      <point x="211" y="216" type="line"/>
      <point x="165" y="0" type="line"/>
      <point x="-27" y="0" type="line"/>
    </contour>
  </outline>
</glyph>
<glyph name="Q" format="2">
  <advance width="600"/>
  <unicode hex="0051"/>
  <outline>
    <contour>
      <point x="362" y="556" type="curve" smooth="yes"/>
      <point x="298" y="556"/>
      <point x="256" y="495"/>
      <point x="227" y="357" type="curve" smooth="yes"/>
      <point x="198" y="219"/>
      <point x="209" y="153"/>
      <point x="276" y="153" type="curve" smooth="yes"/>
      <point x="341" y="153"/>
      <point x="382" y="219"/>
      <point x="411" y="357" type="curve" smooth="yes"/>
      <point x="440" y="495"/>
      <point x="428" y="556"/>
    </contour>
    <contour>
      <point x="396" y="716" type="curve" smooth="yes"/>
      <point x="564" y="716"/>
      <point x="655" y="601"/>
      <point x="603" y="357" type="curve" smooth="yes"/>
      <point x="558" y="145"/>
      <point x="457" y="31"/>
      <point x="311" y="0" type="curve"/>
      <point x="307" y="-21"/>
      <point x="319" y="-34"/>
      <point x="344" y="-34" type="curve" smooth="yes"/>
      <point x="503" y="-34" type="line"/>
      <point x="488" y="-166" type="line"/>
      <point x="435" y="-182"/>
      <point x="373" y="-184"/>
      <point x="325" y="-184" type="curve" smooth="yes"/>
      <point x="197" y="-184"/>
      <point x="140" y="-114"/>
      <point x="159" y="5" type="curve"/>
      <point x="41" y="44"/>
      <point x="-8" y="154"/>
      <point x="35" y="357" type="curve" smooth="yes"/>
      <point x="87" y="600"/>
      <point x="228" y="716"/>
    </contour>
  </outline>
</glyph>
<glyph name="R" format="2">
  <advance width="600"/>
  <unicode hex="0052"/>
  <outline>
    <contour>
      <point x="135" y="708" type="line"/>
      <point x="413" y="708" type="line" smooth="yes"/>
      <point x="575" y="708"/>
      <point x="617" y="614"/>
      <point x="617" y="519" type="curve" smooth="yes"/>
      <point x="617" y="369"/>
      <point x="516" y="283"/>
      <point x="443" y="259" type="curve"/>
      <point x="526" y="0" type="line"/>
      <point x="330" y="0" type="line"/>
      <point x="267" y="254" type="line"/>
      <point x="229" y="254" type="line"/>
      <point x="175" y="0" type="line"/>
      <point x="-15" y="0" type="line"/>
    </contour>
    <contour>
      <point x="259" y="395" type="line"/>
      <point x="333" y="395" type="line" smooth="yes"/>
      <point x="373" y="395"/>
      <point x="425" y="418"/>
      <point x="425" y="494" type="curve" smooth="yes"/>
      <point x="425" y="527"/>
      <point x="410" y="550"/>
      <point x="362" y="550" type="curve" smooth="yes"/>
      <point x="292" y="550" type="line"/>
    </contour>
  </outline>
</glyph>
<glyph name="S" format="2">
  <advance width="600"/>
  <unicode hex="0053"/>
  <outline>
    <contour>
      <point x="409" y="716" type="curve" smooth="yes"/>
      <point x="498" y="716"/>
      <point x="557" y="702"/>
      <point x="631" y="657" type="curve"/>
      <point x="546" y="520" type="line"/>
      <point x="511" y="537"/>
      <point x="462" y="565"/>
      <point x="389" y="565" type="curve" smooth="yes"/>
      <point x="310" y="565"/>
      <point x="285" y="543"/>
      <point x="276" y="503" type="curve" smooth="yes"/>
      <point x="268" y="466"/>
      <point x="291" y="449"/>
      <point x="335" y="434" type="curve" smooth="yes"/>
      <point x="396" y="413" type="line" smooth="yes"/>
      <point x="512" y="372"/>
      <point x="568" y="318"/>
      <point x="543" y="200" type="curve" smooth="yes"/>
      <point x="513" y="60"/>
      <point x="402" y="-8"/>
      <point x="209" y="-8" type="curve" smooth="yes"/>
      <point x="84" y="-8"/>
      <point x="13" y="14"/>
      <point x="-35" y="47" type="curve"/>
      <point x="48" y="187" type="line"/>
      <point x="98" y="157"/>
      <point x="153" y="136"/>
      <point x="236" y="136" type="curve" smooth="yes"/>
      <point x="312" y="136"/>
      <point x="347" y="163"/>
      <point x="355" y="199" type="curve" smooth="yes"/>
      <point x="362" y="233"/>
      <point x="344" y="253"/>
      <point x="292" y="270" type="curve" smooth="yes"/>
      <point x="235" y="289" type="line" smooth="yes"/>
      <point x="117" y="329"/>
      <point x="56" y="374"/>
      <point x="84" y="505" type="curve" smooth="yes"/>
      <point x="112" y="636"/>
      <point x="234" y="716"/>
    </contour>
  </outline>
</glyph>
<glyph name="W" format="2">
  <advance width="600"/>
  <unicode hex="0057"/>
  <outline>
    <contour>
      <point x="85" y="708" type="line"/>
      <point x="224" y="708" type="line"/>
      <point x="167" y="255" type="line"/>
      <point x="290" y="552" type="line"/>
      <point x="412" y="552" type="line"/>
      <point x="405" y="255" type="line"/>
      <point x="517" y="708" type="line"/>
      <point x="665" y="708" type="line"/>
      <point x="461" y="0" type="line"/>
      <point x="299" y="0" type="line"/>
      <point x="307" y="343" type="line"/>
      <point x="165" y="0" type="line"/>
      <point x="-2" y="0" type="line"/>
    </contour>
  </outline>
</glyph>
<glyph name="X" format="2">
  <advance width="600"/>
  <unicode hex="0058"/>
  <outline>
    <contour>
      <point x="79" y="708" type="line"/>
      <point x="285" y="708" type="line"/>
      <point x="325" y="473" type="line"/>
      <point x="464" y="708" type="line"/>
      <point x="671" y="708" type="line"/>
      <point x="398" y="354" type="line"/>
      <point x="521" y="0" type="line"/>
      <point x="314" y="0" type="line"/>
      <point x="275" y="236" type="line"/>
      <point x="135" y="0" type="line"/>
      <point x="-71" y="0" type="line"/>
      <point x="195" y="354" type="line"/>
    </contour>
  </outline>
</glyph>
<glyph name="Z" format="2">
  <advance width="600"/>
  <unicode hex="005A"/>
  <outline>
    <contour>
      <point x="115" y="708" type="line"/>
      <point x="647" y="708" type="line"/>
      <point x="620" y="580" type="line"/>
      <point x="220" y="160" type="line"/>
      <point x="531" y="160" type="line"/>
      <point x="497" y="0" type="line"/>
      <point x="-35" y="0" type="line"/>
      <point x="-8" y="128" type="line"/>
      <point x="395" y="548" type="line"/>
      <point x="81" y="548" type="line"/>
    </contour>
  </outline>
</glyph>
<glyph name="backslash" format="2">
  <advance width="600"/>
  <unicode hex="005C"/>
  <outline>
    <contour>
      <point x="130" y="772" type="line"/>
      <point x="299" y="772" type="line"/>
      <point x="470" y="-34" type="line"/>
      <point x="301" y="-34" type="line"/>
    </contour>
  </outline>
</glyph>
<glyph name="bracketright" format="2">
  <advance width="600"/>
  <unicode hex="005D"/>
  <outline>
    <contour>
      <point x="220" y="800" type="line"/>
      <point x="636" y="800" type="line"/>
      <point x="452" y="-64" type="line"/>
      <point x="36" y="-64" type="line"/>
      <point x="67" y="80" type="line"/>
      <point x="323" y="80" type="line"/>
      <point x="445" y="656" type="line"/>
      <point x="189" y="656" type="line"/>
    </contour>
  </outline>
</glyph>
<glyph name="asciicircum" format="2">
  <advance width="600"/>
  <unicode hex="005E"/>
  <outline>
    <contour>
      <point x="68" y="716" type="line"/>
      <point x="228" y="852" type="line"/>
      <point x="293" y="852" type="line"/>
      <point x="395" y="716" type="line"/>
      <point x="344" y="667" type="line"/>
      <point x="247" y="786" type="line"/>
      <point x="98" y="667" type="line"/>
    </contour>
  </outline>
</glyph>
<glyph name="underscore" format="2">
  <advance width="600"/>
  <unicode hex="005F"/>
  <outline>
    <contour>
      <point x="55" y="0" type="line"/>
      <point x="587" y="1" type="line"/>
      <point x="557" y="-138" type="line"/>
      <point x="25" y="-139" type="line"/>
    </contour>
  </outline>
</glyph>
<glyph name="a" format="2">
  <advance width="600"/>
  <unicode hex="0061"/>
  <anchor x="374" y="687" name="AccentCenter"/>
  <anchor x="372" y="687" name="Ring"/>
  <outline>
    <contour>
      <point x="307" y="401" type="curve"/>
      <point x="252" y="401"/>
      <point x="211" y="342"/>
      <point x="211" y="201" type="curve" smooth="yes"/>
      <point x="211" y="159"/>
      <point x="231" y="138"/>
      <point x="267" y="138" type="curve"/>
      <point x="322" y="170" type="line"/>
      <point x="363" y="374" type="line"/>
      <point x="354" y="386"/>
      <point x="333" y="401"/>
    </contour>
    <contour>
      <point x="274" y="528" type="curve"/>
      <point x="328" y="528"/>
      <point x="366" y="504"/>
      <point x="387" y="477" type="curve"/>
      <point x="414" y="528" type="line"/>
      <point x="569" y="505" type="line"/>
      <point x="491" y="128" type="line"/>
      <point x="548" y="121" type="line"/>
      <point x="525" y="-8" type="line"/>
      <point x="340" y="7" type="line"/>
      <point x="329" y="57" type="line"/>
      <point x="213" y="-8" type="line"/>
      <point x="102" y="3"/>
      <point x="30" y="84"/>
      <point x="30" y="194" type="curve" smooth="yes"/>
      <point x="30" y="460"/>
      <point x="157" y="528"/>
    </contour>
  </outline>
</glyph>
<glyph name="b" format="2">
  <advance width="600"/>
  <unicode hex="0062"/>
  <outline>
    <contour>
      <point x="144" y="716" type="line"/>
      <point x="332" y="716" type="line"/>
      <point x="279" y="468" type="line"/>
      <point x="307" y="510"/>
      <point x="347" y="528"/>
      <point x="411" y="528" type="curve" smooth="yes"/>
      <point x="506" y="528"/>
      <point x="567" y="457"/>
      <point x="567" y="318" type="curve" smooth="yes"/>
      <point x="567" y="100"/>
      <point x="429" y="-8"/>
      <point x="253" y="-8" type="curve" smooth="yes"/>
      <point x="127" y="-8"/>
      <point x="57" y="49"/>
      <point x="17" y="123" type="curve"/>
    </contour>
    <contour>
      <point x="314" y="388" type="curve" smooth="yes"/>
      <point x="281" y="388"/>
      <point x="267" y="373"/>
      <point x="255" y="352" type="curve"/>
      <point x="214" y="160" type="line"/>
      <point x="226" y="137"/>
      <point x="247" y="128"/>
      <point x="273" y="128" type="curve" smooth="yes"/>
      <point x="327" y="128"/>
      <point x="374" y="177"/>
      <point x="374" y="304" type="curve" smooth="yes"/>
      <point x="374" y="369"/>
      <point x="354" y="388"/>
    </contour>
  </outline>
</glyph>
<glyph name="c" format="2">
  <advance width="600"/>
  <unicode hex="0063"/>
  <outline>
    <contour>
      <point x="388" y="528" type="curve" smooth="yes"/>
      <point x="492" y="528"/>
      <point x="527" y="504"/>
      <point x="572" y="476" type="curve"/>
      <point x="493" y="349" type="line"/>
      <point x="478" y="358"/>
      <point x="447" y="381"/>
      <point x="386" y="381" type="curve" smooth="yes"/>
      <point x="309" y="381"/>
      <point x="239" y="332"/>
      <point x="239" y="228" type="curve" smooth="yes"/>
      <point x="239" y="181"/>
      <point x="265" y="133"/>
      <point x="341" y="133" type="curve" smooth="yes"/>
      <point x="396" y="133"/>
      <point x="427" y="151"/>
      <point x="460" y="167" type="curve"/>
      <point x="510" y="49" type="line"/>
      <point x="438" y="12"/>
      <point x="387" y="-8"/>
      <point x="294" y="-8" type="curve" smooth="yes"/>
      <point x="103" y="-8"/>
      <point x="46" y="87"/>
      <point x="46" y="199" type="curve" smooth="yes"/>
      <point x="46" y="430"/>
      <point x="207" y="528"/>
    </contour>
  </outline>
</glyph>
<glyph name="d" format="2">
  <advance width="600"/>
  <unicode hex="0064"/>
  <outline>
    <contour>
      <point x="442" y="724" type="line"/>
      <point x="630" y="724" type="line"/>
      <point x="476" y="0" type="line"/>
      <point x="326" y="0" type="line"/>
      <point x="302" y="65" type="line"/>
      <point x="268" y="19"/>
      <point x="213" y="-8"/>
      <point x="148" y="-8" type="curve" smooth="yes"/>
      <point x="31" y="-8"/>
      <point x="-35" y="79"/>
      <point x="5" y="267" type="curve" smooth="yes"/>
      <point x="40" y="431"/>
      <point x="131" y="528"/>
      <point x="260" y="528" type="curve" smooth="yes"/>
      <point x="349" y="528"/>
      <point x="384" y="474"/>
      <point x="387" y="468" type="curve"/>
    </contour>
    <contour>
      <point x="305" y="393" type="curve" smooth="yes"/>
      <point x="247" y="393"/>
      <point x="214" y="348"/>
      <point x="196" y="264" type="curve" smooth="yes"/>
      <point x="177" y="176"/>
      <point x="193" y="131"/>
      <point x="247" y="131" type="curve" smooth="yes"/>
      <point x="281" y="131"/>
      <point x="304" y="144"/>
      <point x="324" y="170" type="curve"/>
      <point x="362" y="349" type="line"/>
      <point x="352" y="378"/>
      <point x="339" y="393"/>
    </contour>
  </outline>
</glyph>
<glyph name="e" format="2">
  <advance width="600"/>
  <unicode hex="0065"/>
  <anchor x="407" y="687" name="AccentCenter"/>
  <outline>
    <contour>
      <point x="383" y="359" type="curve"/>
      <point x="384" y="384"/>
      <point x="370" y="399"/>
      <point x="332" y="399" type="curve" smooth="yes"/>
      <point x="277" y="399"/>
      <point x="244" y="352"/>
      <point x="239" y="317" type="curve"/>
      <point x="330" y="317" type="line"/>
      <point x="356" y="317"/>
      <point x="383" y="330"/>
    </contour>
    <contour>
      <point x="232" y="198" type="line"/>
      <point x="233" y="151"/>
      <point x="263" y="114"/>
      <point x="346" y="114" type="curve" smooth="yes"/>
      <point x="424" y="114"/>
      <point x="469" y="131"/>
      <point x="501" y="143" type="curve"/>
      <point x="477" y="12" type="line"/>
      <point x="426" y="-1"/>
      <point x="378" y="-8"/>
      <point x="316" y="-8" type="curve" smooth="yes"/>
      <point x="123" y="-8"/>
      <point x="52" y="108"/>
      <point x="52" y="261" type="curve" smooth="yes"/>
      <point x="52" y="420"/>
      <point x="173" y="528"/>
      <point x="337" y="528" type="curve" smooth="yes"/>
      <point x="488" y="528"/>
      <point x="553" y="462"/>
      <point x="553" y="358" type="curve" smooth="yes"/>
      <point x="553" y="250"/>
      <point x="441" y="198"/>
      <point x="330" y="198" type="curve"/>
    </contour>
  </outline>
</glyph>
<glyph name="f" format="2">
  <advance width="600"/>
  <unicode hex="0066"/>
  <outline>
    <contour>
      <point x="474" y="780" type="curve" smooth="yes"/>
      <point x="530" y="780"/>
      <point x="582" y="763"/>
      <point x="618" y="750" type="curve"/>
      <point x="582" y="622" type="line"/>
      <point x="563" y="629"/>
      <point x="532" y="642"/>
      <point x="500" y="642" type="curve"/>
      <point x="457" y="642"/>
      <point x="419" y="621"/>
      <point x="406" y="574" type="curve" smooth="yes"/>
      <point x="391" y="520" type="line"/>
      <point x="578" y="520" type="line"/>
      <point x="546" y="370" type="line"/>
      <point x="359" y="370" type="line"/>
      <point x="272" y="-41" type="line"/>
      <point x="135" y="-218" type="line"/>
      <point x="-21" y="-131" type="line"/>
      <point x="88" y="0" type="line"/>
      <point x="167" y="370" type="line"/>
      <point x="25" y="370" type="line"/>
      <point x="57" y="520" type="line"/>
      <point x="199" y="520" type="line"/>
      <point x="215" y="582" type="line" smooth="yes"/>
      <point x="244" y="701"/>
      <point x="335" y="780"/>
    </contour>
  </outline>
</glyph>
<glyph name="g" format="2">
  <advance width="600"/>
  <unicode hex="0067"/>
  <outline>
    <contour>
      <point x="336" y="528" type="curve" smooth="yes"/>
      <point x="416" y="528"/>
      <point x="460" y="507"/>
      <point x="483" y="488" type="curve"/>
      <point x="620" y="520" type="line"/>
      <point x="642" y="520" type="line"/>
      <point x="611" y="379" type="line"/>
      <point x="522" y="379" type="line"/>
      <point x="525" y="373"/>
      <point x="524" y="352"/>
      <point x="521" y="338" type="curve" smooth="yes"/>
      <point x="500" y="237"/>
      <point x="402" y="179"/>
      <point x="292" y="179" type="curve" smooth="yes"/>
      <point x="267" y="179"/>
      <point x="253" y="180"/>
      <point x="253" y="180" type="curve"/>
      <point x="214" y="152" type="line"/>
      <point x="398" y="138" type="line" smooth="yes"/>
      <point x="499" y="130"/>
      <point x="556" y="79"/>
      <point x="537" y="-10" type="curve" smooth="yes"/>
      <point x="507" y="-152"/>
      <point x="376" y="-193"/>
      <point x="225" y="-192" type="curve" smooth="yes"/>
      <point x="106" y="-191"/>
      <point x="26" y="-174"/>
      <point x="-38" y="-138" type="curve"/>
      <point x="-21" y="-60" type="line"/>
      <point x="87" y="22" type="line"/>
      <point x="6" y="29" type="line"/>
      <point x="26" y="122" type="line"/>
      <point x="135" y="208" type="line"/>
      <point x="88" y="228"/>
      <point x="62" y="284"/>
      <point x="77" y="354" type="curve" smooth="yes"/>
      <point x="100" y="463"/>
      <point x="200" y="528"/>
    </contour>
    <contour>
      <point x="236" y="10" type="line"/>
      <point x="160" y="-54" type="line"/>
      <point x="179" y="-60"/>
      <point x="212" y="-71"/>
      <point x="270" y="-71" type="curve" smooth="yes"/>
      <point x="316" y="-71"/>
      <point x="341" y="-58"/>
      <point x="346" y="-33" type="curve" smooth="yes"/>
      <point x="351" y="-11"/>
      <point x="342" y="1"/>
      <point x="312" y="4" type="curve" smooth="yes"/>
    </contour>
    <contour>
      <point x="312" y="409" type="curve" smooth="yes"/>
      <point x="280" y="409"/>
      <point x="265" y="391"/>
      <point x="257" y="354" type="curve" smooth="yes"/>
      <point x="249" y="317"/>
      <point x="257" y="298"/>
      <point x="289" y="298" type="curve" smooth="yes"/>
      <point x="322" y="298"/>
      <point x="337" y="318"/>
      <point x="345" y="354" type="curve" smooth="yes"/>
      <point x="352" y="389"/>
      <point x="345" y="409"/>
    </contour>
  </outline>
</glyph>
<glyph name="h" format="2">
  <advance width="600"/>
  <unicode hex="0068"/>
  <outline>
    <contour>
      <point x="154" y="708" type="line"/>
      <point x="346" y="708" type="line"/>
      <point x="291" y="448" type="line"/>
      <point x="329" y="501"/>
      <point x="376" y="528"/>
      <point x="453" y="528" type="curve" smooth="yes"/>
      <point x="563" y="528"/>
      <point x="614" y="469"/>
      <point x="584" y="329" type="curve" smooth="yes"/>
      <point x="514" y="0" type="line"/>
      <point x="322" y="0" type="line"/>
      <point x="386" y="304" type="line" smooth="yes"/>
      <point x="395" y="344"/>
      <point x="390" y="370"/>
      <point x="349" y="370" type="curve" smooth="yes"/>
      <point x="310" y="370"/>
      <point x="286" y="350"/>
      <point x="265" y="324" type="curve"/>
      <point x="196" y="0" type="line"/>
      <point x="4" y="0" type="line"/>
    </contour>
  </outline>
</glyph>
<glyph name="j" format="2">
  <advance width="600"/>
  <unicode hex="006A"/>
  <outline>
    <contour>
      <point x="541" y="743" type="curve" smooth="yes"/>
      <point x="597" y="743"/>
      <point x="632" y="709"/>
      <point x="619" y="646" type="curve" smooth="yes"/>
      <point x="607" y="588"/>
      <point x="556" y="549"/>
      <point x="500" y="549" type="curve" smooth="yes"/>
      <point x="449" y="549"/>
      <point x="412" y="583"/>
      <point x="425" y="646" type="curve" smooth="yes"/>
      <point x="438" y="709"/>
      <point x="490" y="743"/>
    </contour>
    <contour>
      <point x="179" y="520" type="line"/>
      <point x="588" y="520" type="line"/>
      <point x="493" y="71" type="line" smooth="yes"/>
      <point x="457" y="-100"/>
      <point x="309" y="-192"/>
      <point x="150" y="-192" type="curve" smooth="yes"/>
      <point x="38" y="-192"/>
      <point x="-9" y="-173"/>
      <point x="-54" y="-150" type="curve"/>
      <point x="10" y="1" type="line"/>
      <point x="49" y="-19"/>
      <point x="88" y="-40"/>
      <point x="156" y="-40" type="curve" smooth="yes"/>
      <point x="247" y="-40"/>
      <point x="287" y="7"/>
      <point x="301" y="75" type="curve" smooth="yes"/>
      <point x="362" y="360" type="line"/>
      <point x="145" y="360" type="line"/>
    </contour>
  </outline>
</glyph>
<glyph name="k" format="2">
  <advance width="600"/>
  <unicode hex="006B"/>
  <outline>
    <contour>
      <point x="123" y="708" type="line"/>
      <point x="315" y="708" type="line"/>
      <point x="241" y="360" type="line"/>
      <point x="282" y="360" type="line"/>
      <point x="420" y="519" type="line"/>
      <point x="637" y="519" type="line"/>
      <point x="416" y="275" type="line"/>
      <point x="541" y="0" type="line"/>
      <point x="322" y="0" type="line"/>
      <point x="245" y="185" type="line"/>
      <point x="204" y="185" type="line"/>
      <point x="165" y="0" type="line"/>
      <point x="-27" y="0" type="line"/>
    </contour>
  </outline>
</glyph>
<glyph name="l" format="2">
  <advance width="600"/>
  <unicode hex="006C"/>
  <outline>
    <contour>
      <point x="103" y="724" type="line"/>
      <point x="456" y="724" type="line"/>
      <point x="334" y="150" type="line"/>
      <point x="497" y="150" type="line"/>
      <point x="465" y="0" type="line"/>
      <point x="110" y="0" type="line"/>
      <point x="232" y="574" type="line"/>
      <point x="71" y="574" type="line"/>
    </contour>
  </outline>
</glyph>
<glyph name="m" format="2">
  <advance width="600"/>
  <unicode hex="006D"/>
  <outline>
    <contour>
      <point x="72" y="520" type="line"/>
      <point x="161" y="520" type="line"/>
      <point x="190" y="448" type="line"/>
      <point x="223" y="499"/>
      <point x="259" y="528"/>
      <point x="323" y="528" type="curve" smooth="yes"/>
      <point x="371" y="528"/>
      <point x="396" y="495"/>
      <point x="388" y="445" type="curve"/>
      <point x="422" y="502"/>
      <point x="467" y="528"/>
      <point x="526" y="528" type="curve" smooth="yes"/>
      <point x="597" y="528"/>
      <point x="630" y="493"/>
      <point x="612" y="407" type="curve" smooth="yes"/>
      <point x="526" y="0" type="line"/>
      <point x="382" y="0" type="line"/>
      <point x="459" y="363" type="line" smooth="yes"/>
      <point x="463" y="382"/>
      <point x="459" y="394"/>
      <point x="438" y="394" type="curve" smooth="yes"/>
      <point x="425" y="394"/>
      <point x="406" y="386"/>
      <point x="395" y="370" type="curve"/>
      <point x="316" y="0" type="line"/>
      <point x="178" y="0" type="line"/>
      <point x="255" y="363" type="line" smooth="yes"/>
      <point x="259" y="381"/>
      <point x="252" y="394"/>
      <point x="234" y="394" type="curve" smooth="yes"/>
      <point x="220" y="394"/>
      <point x="200" y="386"/>
      <point x="188" y="370" type="curve"/>
      <point x="109" y="0" type="line"/>
      <point x="-38" y="0" type="line"/>
    </contour>
  </outline>
</glyph>
<glyph name="n" format="2">
  <advance width="600"/>
  <unicode hex="006E"/>
  <anchor x="436" y="687" name="AccentCenter"/>
  <outline>
    <contour>
      <point x="102" y="520" type="line"/>
      <point x="252" y="520" type="line"/>
      <point x="274" y="424" type="line"/>
      <point x="314" y="481"/>
      <point x="373" y="528"/>
      <point x="467" y="528" type="curve" smooth="yes"/>
      <point x="569" y="528"/>
      <point x="609" y="459"/>
      <point x="583" y="336" type="curve" smooth="yes"/>
      <point x="512" y="0" type="line"/>
      <point x="320" y="0" type="line"/>
      <point x="383" y="296" type="line" smooth="yes"/>
      <point x="396" y="357"/>
      <point x="384" y="379"/>
      <point x="341" y="379" type="curve" smooth="yes"/>
      <point x="291" y="379"/>
      <point x="266" y="332"/>
      <point x="249" y="304" type="curve"/>
      <point x="184" y="0" type="line"/>
      <point x="-8" y="0" type="line"/>
    </contour>
  </outline>
</glyph>
<glyph name="o" format="2">
  <advance width="600"/>
  <unicode hex="006F"/>
  <anchor x="419" y="686" name="AccentCenter"/>
  <outline>
    <contour>
      <point x="327" y="387" type="curve" smooth="yes"/>
      <point x="265" y="387"/>
      <point x="235" y="349"/>
      <point x="215" y="254" type="curve" smooth="yes"/>
      <point x="197" y="167"/>
      <point x="210" y="134"/>
      <point x="273" y="134" type="curve" smooth="yes"/>
      <point x="333" y="134"/>
      <point x="365" y="170"/>
      <point x="384" y="258" type="curve" smooth="yes"/>
      <point x="403" y="347"/>
      <point x="387" y="387"/>
    </contour>
    <contour>
      <point x="357" y="528" type="curve" smooth="yes"/>
      <point x="527" y="528"/>
      <point x="611" y="428"/>
      <point x="576" y="261" type="curve" smooth="yes"/>
      <point x="540" y="93"/>
      <point x="411" y="-8"/>
      <point x="243" y="-8" type="curve" smooth="yes"/>
      <point x="80" y="-8"/>
      <point x="-12" y="91"/>
      <point x="24" y="259" type="curve" smooth="yes"/>
      <point x="61" y="431"/>
      <point x="189" y="528"/>
    </contour>
  </outline>
</glyph>
<glyph name="p" format="2">
  <advance width="600"/>
  <unicode hex="0070"/>
  <outline>
    <contour>
      <point x="355" y="388" type="curve" smooth="yes"/>
      <point x="316" y="388"/>
      <point x="297" y="366"/>
      <point x="271" y="330" type="curve"/>
      <point x="241" y="189" type="line"/>
      <point x="252" y="151"/>
      <point x="262" y="128"/>
      <point x="296" y="128" type="curve" smooth="yes"/>
      <point x="360" y="128"/>
      <point x="385" y="172"/>
      <point x="404" y="260" type="curve" smooth="yes"/>
      <point x="421" y="341"/>
      <point x="414" y="388"/>
    </contour>
    <contour>
      <point x="123" y="520" type="line"/>
      <point x="273" y="520" type="line"/>
      <point x="298" y="460" type="line"/>
      <point x="335" y="504"/>
      <point x="389" y="527"/>
      <point x="451" y="527" type="curve" smooth="yes"/>
      <point x="590" y="527"/>
      <point x="632" y="434"/>
      <point x="595" y="259" type="curve" smooth="yes"/>
      <point x="561" y="100"/>
      <point x="473" y="-8"/>
      <point x="337" y="-8" type="curve" smooth="yes"/>
      <point x="269" y="-8"/>
      <point x="234" y="10"/>
      <point x="211" y="51" type="curve"/>
      <point x="160" y="-192" type="line"/>
      <point x="-28" y="-192" type="line"/>
    </contour>
  </outline>
</glyph>
<glyph name="q" format="2">
  <advance width="600"/>
  <unicode hex="0071"/>
  <outline>
    <contour>
      <point x="331" y="388" type="curve" smooth="yes"/>
      <point x="280" y="388"/>
      <point x="253" y="339"/>
      <point x="235" y="256" type="curve" smooth="yes"/>
      <point x="217" y="172"/>
      <point x="224" y="128"/>
      <point x="279" y="128" type="curve" smooth="yes"/>
      <point x="315" y="128"/>
      <point x="341" y="151"/>
      <point x="368" y="187" type="curve"/>
      <point x="399" y="332" type="line"/>
      <point x="386" y="368"/>
      <point x="368" y="388"/>
    </contour>
    <contour>
      <point x="477" y="520" type="line"/>
      <point x="627" y="520" type="line"/>
      <point x="475" y="-192" type="line"/>
      <point x="287" y="-192" type="line"/>
      <point x="340" y="53" type="line"/>
      <point x="299" y="12"/>
      <point x="250" y="-8"/>
      <point x="183" y="-8" type="curve" smooth="yes"/>
      <point x="47" y="-8"/>
      <point x="9" y="100"/>
      <point x="43" y="259" type="curve" smooth="yes"/>
      <point x="77" y="419"/>
      <point x="162" y="528"/>
      <point x="299" y="528" type="curve" smooth="yes"/>
      <point x="362" y="528"/>
      <point x="408" y="501"/>
      <point x="425" y="455" type="curve"/>
    </contour>
  </outline>
</glyph>
<glyph name="r" format="2">
  <advance width="600"/>
  <unicode hex="0072"/>
  <outline>
    <contour>
      <point x="257" y="520" type="line"/>
      <point x="276" y="410" type="line"/>
      <point x="308" y="469"/>
      <point x="386" y="528"/>
      <point x="478" y="528" type="curve" smooth="yes"/>
      <point x="514" y="528"/>
      <point x="553" y="523"/>
      <point x="594" y="509" type="curve"/>
      <point x="531" y="360" type="line"/>
      <point x="510" y="360"/>
      <point x="493" y="360"/>
      <point x="457" y="360" type="curve" smooth="yes"/>
      <point x="383" y="360"/>
      <point x="342" y="313"/>
      <point x="323" y="280" type="curve"/>
      <point x="264" y="0" type="line"/>
      <point x="72" y="0" type="line"/>
      <point x="132" y="284" type="line"/>
      <point x="70" y="520" type="line"/>
    </contour>
  </outline>
</glyph>
<glyph name="s" format="2">
  <advance width="600"/>
  <unicode hex="0073"/>
  <outline>
    <contour>
      <point x="342" y="528" type="curve" smooth="yes"/>
      <point x="432" y="528"/>
      <point x="504" y="507"/>
      <point x="553" y="482" type="curve"/>
      <point x="526" y="344" type="line"/>
      <point x="480" y="364"/>
      <point x="420" y="387"/>
      <point x="336" y="387" type="curve" smooth="yes"/>
      <point x="285" y="387"/>
      <point x="264" y="380"/>
      <point x="264" y="359" type="curve" smooth="yes"/>
      <point x="264" y="340"/>
      <point x="272" y="333"/>
      <point x="310" y="325" type="curve" smooth="yes"/>
      <point x="370" y="313" type="line" smooth="yes"/>
      <point x="473" y="292"/>
      <point x="510" y="248"/>
      <point x="510" y="163" type="curve" smooth="yes"/>
      <point x="510" y="41"/>
      <point x="407" y="-8"/>
      <point x="236" y="-8" type="curve" smooth="yes"/>
      <point x="141" y="-8"/>
      <point x="69" y="12"/>
      <point x="26" y="33" type="curve"/>
      <point x="59" y="168" type="line"/>
      <point x="87" y="153"/>
      <point x="157" y="123"/>
      <point x="244" y="123" type="curve" smooth="yes"/>
      <point x="319" y="123"/>
      <point x="338" y="135"/>
      <point x="338" y="154" type="curve" smooth="yes"/>
      <point x="338" y="178"/>
      <point x="314" y="184"/>
      <point x="277" y="191" type="curve" smooth="yes"/>
      <point x="232" y="200" type="line" smooth="yes"/>
      <point x="134" y="220"/>
      <point x="87" y="260"/>
      <point x="87" y="357" type="curve" smooth="yes"/>
      <point x="87" y="462"/>
      <point x="160" y="528"/>
    </contour>
  </outline>
</glyph>
<glyph name="t" format="2">
  <advance width="600"/>
  <unicode hex="0074"/>
  <outline>
    <contour>
      <point x="232" y="614" type="line"/>
      <point x="440" y="687" type="line"/>
      <point x="404" y="520" type="line"/>
      <point x="581" y="520" type="line"/>
      <point x="549" y="370" type="line"/>
      <point x="372" y="370" type="line"/>
      <point x="335" y="194" type="line" smooth="yes"/>
      <point x="327" y="156"/>
      <point x="340" y="138"/>
      <point x="380" y="138" type="curve"/>
      <point x="420" y="138"/>
      <point x="449" y="150"/>
      <point x="488" y="162" type="curve"/>
      <point x="491" y="27" type="line"/>
      <point x="433" y="3"/>
      <point x="392" y="-8"/>
      <point x="314" y="-8" type="curve" smooth="yes"/>
      <point x="173" y="-8"/>
      <point x="115" y="59"/>
      <point x="146" y="206" type="curve" smooth="yes"/>
      <point x="180" y="370" type="line"/>
      <point x="49" y="370" type="line"/>
      <point x="81" y="520" type="line"/>
      <point x="212" y="520" type="line"/>
    </contour>
  </outline>
</glyph>
<glyph name="u" format="2">
  <advance width="600"/>
  <unicode hex="0075"/>
  <anchor x="392" y="687" name="AccentCenter"/>
  <outline>
    <contour>
      <point x="100" y="520" type="line"/>
      <point x="292" y="520" type="line"/>
      <point x="227" y="216" type="line" smooth="yes"/>
      <point x="215" y="159"/>
      <point x="224" y="140"/>
      <point x="270" y="140" type="curve" smooth="yes"/>
      <point x="305" y="140"/>
      <point x="336" y="167"/>
      <point x="354" y="192" type="curve"/>
      <point x="424" y="520" type="line"/>
      <point x="616" y="520" type="line"/>
      <point x="506" y="0" type="line"/>
      <point x="357" y="0" type="line"/>
      <point x="330" y="79" type="line"/>
      <point x="291" y="29"/>
      <point x="239" y="-8"/>
      <point x="169" y="-8" type="curve" smooth="yes"/>
      <point x="50" y="-8"/>
      <point x="-1" y="71"/>
      <point x="29" y="202" type="curve" smooth="yes"/>
    </contour>
  </outline>
</glyph>
<glyph name="v" format="2">
  <advance width="600"/>
  <unicode hex="0076"/>
  <outline>
    <contour>
      <point x="50" y="520" type="line"/>
      <point x="210" y="520" type="line"/>
      <point x="253" y="145" type="line"/>
      <point x="321" y="191"/>
      <point x="416" y="344"/>
      <point x="438" y="520" type="curve"/>
      <point x="599" y="520" type="line"/>
      <point x="548" y="249"/>
      <point x="448" y="86"/>
      <point x="283" y="0" type="curve"/>
      <point x="109" y="0" type="line"/>
    </contour>
  </outline>
</glyph>
<glyph name="w" format="2">
  <advance width="600"/>
  <unicode hex="0077"/>
  <outline>
    <contour>
      <point x="67" y="520" type="line"/>
      <point x="211" y="520" type="line"/>
      <point x="149" y="155" type="line"/>
      <point x="274" y="462" type="line"/>
      <point x="413" y="462" type="line"/>
      <point x="403" y="159" type="line"/>
      <point x="497" y="520" type="line"/>
      <point x="643" y="520" type="line"/>
      <point x="475" y="0" type="line"/>
      <point x="286" y="0" type="line"/>
      <point x="311" y="317" type="line"/>
      <point x="199" y="0" type="line"/>
      <point x="10" y="0" type="line"/>
    </contour>
  </outline>
</glyph>
<glyph name="x" format="2">
  <advance width="600"/>
  <unicode hex="0078"/>
  <outline>
    <contour>
      <point x="59" y="520" type="line"/>
      <point x="269" y="520" type="line"/>
      <point x="321" y="352" type="line"/>
      <point x="447" y="520" type="line"/>
      <point x="651" y="520" type="line"/>
      <point x="420" y="260" type="line"/>
      <point x="541" y="0" type="line"/>
      <point x="337" y="0" type="line"/>
      <point x="286" y="169" type="line"/>
      <point x="159" y="0" type="line"/>
      <point x="-51" y="0" type="line"/>
      <point x="178" y="260" type="line"/>
    </contour>
  </outline>
</glyph>
<glyph name="y" format="2">
  <advance width="600"/>
  <unicode hex="0079"/>
  <anchor x="419" y="687" name="AccentCenter"/>
  <outline>
    <contour>
      <point x="86" y="520" type="line"/>
      <point x="300" y="520" type="line"/>
      <point x="307" y="250" type="line"/>
      <point x="300" y="156" type="line"/>
      <point x="337" y="250" type="line"/>
      <point x="477" y="520" type="line"/>
      <point x="671" y="520" type="line"/>
      <point x="220" y="-191" type="line"/>
      <point x="40" y="-191" type="line"/>
      <point x="184" y="37" type="line"/>
    </contour>
  </outline>
</glyph>
<glyph name="z" format="2">
  <advance width="600"/>
  <unicode hex="007A"/>
  <outline>
    <contour>
      <point x="111" y="520" type="line"/>
      <point x="579" y="520" type="line"/>
      <point x="556" y="410" type="line"/>
      <point x="277" y="142" type="line"/>
      <point x="515" y="142" type="line"/>
      <point x="485" y="0" type="line"/>
      <point x="1" y="0" type="line"/>
      <point x="24" y="110" type="line"/>
      <point x="317" y="378" type="line"/>
      <point x="81" y="378" type="line"/>
    </contour>
  </outline>
</glyph>
<glyph name="braceleft" format="2">
  <advance width="600"/>
  <unicode hex="007B"/>
  <outline>
    <contour>
      <point x="473" y="800" type="curve"/>
      <point x="547" y="800" type="line"/>
      <point x="547" y="656" type="line"/>
      <point x="468" y="656" type="line"/>
      <point x="418" y="656"/>
      <point x="389" y="637"/>
      <point x="379" y="597" type="curve"/>
      <point x="379" y="495" type="line"/>
      <point x="364" y="425"/>
      <point x="316" y="364"/>
      <point x="219" y="349" type="curve"/>
      <point x="262" y="336"/>
      <point x="307" y="290"/>
      <point x="318" y="237" type="curve"/>
      <point x="318" y="120" type="line"/>
      <point x="323" y="90"/>
      <point x="341" y="61"/>
      <point x="394" y="61" type="curve"/>
      <point x="458" y="61" type="line"/>
      <point x="458" y="-83" type="line"/>
      <point x="396" y="-83" type="line"/>
      <point x="236" y="-83"/>
      <point x="163" y="18"/>
      <point x="153" y="112" type="curve"/>
      <point x="153" y="221" type="line"/>
      <point x="144" y="254"/>
      <point x="108" y="289"/>
      <point x="60" y="289" type="curve"/>
      <point x="33" y="289" type="line"/>
      <point x="33" y="438" type="line"/>
      <point x="138" y="438" type="line"/>
      <point x="176" y="438"/>
      <point x="209" y="459"/>
      <point x="221" y="503" type="curve"/>
      <point x="222" y="601" type="line"/>
      <point x="243" y="734"/>
      <point x="349" y="800"/>
    </contour>
  </outline>
</glyph>
<glyph name="braceright" format="2">
  <advance width="600"/>
  <unicode hex="007D"/>
  <outline>
    <contour>
      <point x="122" y="800" type="line"/>
      <point x="184" y="800" type="line"/>
      <point x="344" y="800"/>
      <point x="417" y="699"/>
      <point x="427" y="605" type="curve"/>
      <point x="427" y="496" type="line"/>
      <point x="436" y="463"/>
      <point x="472" y="428"/>
      <point x="520" y="428" type="curve"/>
      <point x="547" y="428" type="line"/>
      <point x="547" y="279" type="line"/>
      <point x="442" y="279" type="line"/>
      <point x="404" y="279"/>
      <point x="371" y="258"/>
      <point x="359" y="214" type="curve"/>
      <point x="358" y="116" type="line"/>
      <point x="337" y="-17"/>
      <point x="231" y="-83"/>
      <point x="107" y="-83" type="curve"/>
      <point x="33" y="-83" type="line"/>
      <point x="33" y="61" type="line"/>
      <point x="112" y="61" type="line"/>
      <point x="162" y="61"/>
      <point x="191" y="80"/>
      <point x="201" y="120" type="curve"/>
      <point x="201" y="222" type="line"/>
      <point x="216" y="292"/>
      <point x="264" y="353"/>
      <point x="361" y="368" type="curve"/>
      <point x="318" y="381"/>
      <point x="273" y="427"/>
      <point x="262" y="480" type="curve"/>
      <point x="262" y="597" type="line"/>
      <point x="257" y="627"/>
      <point x="239" y="656"/>
      <point x="186" y="656" type="curve"/>
      <point x="122" y="656" type="line"/>
    </contour>
  </outline>
</glyph>
<glyph name="asciitilde" format="2">
  <advance width="600"/>
  <unicode hex="007E"/>
  <outline>
    <contour>
      <point x="0" y="212" type="line"/>
      <point x="26" y="308"/>
      <point x="95" y="406"/>
      <point x="225" y="406" type="curve" smooth="yes"/>
      <point x="326" y="406"/>
      <point x="347" y="329"/>
      <point x="398" y="329" type="curve" smooth="yes"/>
      <point x="434" y="329"/>
      <point x="460" y="342"/>
      <point x="476" y="406" type="curve"/>
      <point x="600" y="399" type="line"/>
      <point x="572" y="283"/>
      <point x="491" y="207"/>
      <point x="379" y="207" type="curve" smooth="yes"/>
      <point x="262" y="207"/>
      <point x="269" y="291"/>
      <point x="204" y="291" type="curve" smooth="yes"/>
      <point x="160" y="291"/>
      <point x="140" y="255"/>
      <point x="128" y="205" type="curve"/>
    </contour>
  </outline>
</glyph>
<glyph name="sterling" format="2">
  <advance width="600"/>
  <unicode hex="00A3"/>
  <outline>
    <contour>
      <point x="433" y="716" type="curve" smooth="yes"/>
      <point x="543" y="716"/>
      <point x="587" y="678"/>
      <point x="634" y="636" type="curve"/>
      <point x="528" y="520" type="line"/>
      <point x="488" y="553"/>
      <point x="461" y="572"/>
      <point x="405" y="572" type="curve" smooth="yes"/>
      <point x="348" y="572"/>
      <point x="312" y="544"/>
      <point x="302" y="496" type="curve" smooth="yes"/>
      <point x="297" y="473"/>
      <point x="296" y="454"/>
      <point x="298" y="438" type="curve"/>
      <point x="480" y="438" type="line"/>
      <point x="447" y="285" type="line"/>
      <point x="327" y="285" type="line"/>
      <point x="326" y="280"/>
      <point x="326" y="274"/>
      <point x="325" y="268" type="curve" smooth="yes"/>
      <point x="315" y="223"/>
      <point x="289" y="178"/>
      <point x="238" y="150" type="curve"/>
      <point x="525" y="150" type="line"/>
      <point x="493" y="0" type="line"/>
      <point x="-17" y="0" type="line"/>
      <point x="16" y="156" type="line"/>
      <point x="61" y="156"/>
      <point x="130" y="178"/>
      <point x="149" y="267" type="curve" smooth="yes"/>
      <point x="150" y="273"/>
      <point x="151" y="279"/>
      <point x="151" y="285" type="curve"/>
      <point x="17" y="285" type="line"/>
      <point x="50" y="438" type="line"/>
      <point x="125" y="438" type="line"/>
      <point x="122" y="459"/>
      <point x="123" y="483"/>
      <point x="129" y="510" type="curve" smooth="yes"/>
      <point x="154" y="626"/>
      <point x="273" y="716"/>
    </contour>
  </outline>
</glyph>
<glyph name="currency" format="2">
  <advance width="600"/>
  <unicode hex="00A4"/>
  <outline>
    <contour>
      <point x="459" y="220" type="line"/>
      <point x="589" y="56" type="line"/>
      <point x="464" y="-47" type="line"/>
      <point x="334" y="116" type="line"/>
    </contour>
    <contour>
      <point x="204" y="116" type="line"/>
      <point x="6" y="-47" type="line"/>
      <point x="-75" y="56" type="line"/>
      <point x="123" y="219" type="line"/>
    </contour>
    <contour>
      <point x="142" y="302" type="line"/>
      <point x="13" y="466" type="line"/>
      <point x="136" y="568" type="line"/>
      <point x="266" y="405" type="line"/>
    </contour>
    <contour>
      <point x="395" y="404" type="line"/>
      <point x="594" y="568" type="line"/>
      <point x="675" y="465" type="line"/>
      <point x="476" y="301" type="line"/>
    </contour>
    <contour>
      <point x="322" y="364" type="curve" smooth="yes"/>
      <point x="261" y="364"/>
      <point x="213" y="318"/>
      <point x="200" y="259" type="curve" smooth="yes"/>
      <point x="187" y="200"/>
      <point x="216" y="155"/>
      <point x="278" y="155" type="curve" smooth="yes"/>
      <point x="339" y="155"/>
      <point x="388" y="200"/>
      <point x="401" y="259" type="curve" smooth="yes"/>
      <point x="414" y="318"/>
      <point x="383" y="364"/>
    </contour>
    <contour>
      <point x="246" y="6" type="curve" smooth="yes"/>
      <point x="108" y="6"/>
      <point x="22" y="120"/>
      <point x="52" y="260" type="curve" smooth="yes"/>
      <point x="82" y="400"/>
      <point x="216" y="513"/>
      <point x="354" y="513" type="curve" smooth="yes"/>
      <point x="492" y="513"/>
      <point x="578" y="400"/>
      <point x="548" y="260" type="curve" smooth="yes"/>
      <point x="518" y="120"/>
      <point x="384" y="6"/>
    </contour>
  </outline>
</glyph>
<glyph name="section" format="2">
  <advance width="600"/>
  <unicode hex="00A7"/>
  <outline>
    <contour>
      <point x="446" y="768" type="curve" smooth="yes"/>
      <point x="527" y="768"/>
      <point x="626" y="736"/>
      <point x="677" y="694" type="curve"/>
      <point x="585" y="572" type="line"/>
      <point x="542" y="602"/>
      <point x="480" y="623"/>
      <point x="431" y="623" type="curve" smooth="yes"/>
      <point x="352" y="623"/>
      <point x="315" y="605"/>
      <point x="306" y="561" type="curve" smooth="yes"/>
      <point x="296" y="516"/>
      <point x="309" y="506"/>
      <point x="396" y="486" type="curve"/>
      <point x="441" y="474" type="line" smooth="yes"/>
      <point x="558" y="444"/>
      <point x="607" y="381"/>
      <point x="583" y="267" type="curve" smooth="yes"/>
      <point x="570" y="205"/>
      <point x="531" y="147"/>
      <point x="476" y="108" type="curve"/>
      <point x="494" y="82"/>
      <point x="498" y="51"/>
      <point x="488" y="6" type="curve" smooth="yes"/>
      <point x="461" y="-122"/>
      <point x="345" y="-191"/>
      <point x="158" y="-191" type="curve" smooth="yes"/>
      <point x="86" y="-191"/>
      <point x="-12" y="-164"/>
      <point x="-72" y="-129" type="curve"/>
      <point x="16" y="-2" type="line"/>
      <point x="50" y="-29"/>
      <point x="127" y="-51"/>
      <point x="184" y="-51" type="curve" smooth="yes"/>
      <point x="269" y="-51"/>
      <point x="306" y="-32"/>
      <point x="317" y="18" type="curve" smooth="yes"/>
      <point x="326" y="62"/>
      <point x="304" y="87"/>
      <point x="248" y="99" type="curve" smooth="yes"/>
      <point x="153" y="119" type="line" smooth="yes"/>
      <point x="44" y="145"/>
      <point x="9" y="199"/>
      <point x="32" y="308" type="curve" smooth="yes"/>
      <point x="44" y="366"/>
      <point x="89" y="432"/>
      <point x="138" y="464" type="curve"/>
      <point x="122" y="487"/>
      <point x="119" y="530"/>
      <point x="130" y="580" type="curve" smooth="yes"/>
      <point x="154" y="692"/>
      <point x="281" y="768"/>
    </contour>
    <contour>
      <point x="223" y="389" type="curve"/>
      <point x="209" y="379"/>
      <point x="195" y="356"/>
      <point x="189" y="330" type="curve" smooth="yes"/>
      <point x="179" y="281"/>
      <point x="195" y="258"/>
      <point x="250" y="246" type="curve" smooth="yes"/>
      <point x="334" y="227" type="line" smooth="yes"/>
      <point x="365" y="220"/>
      <point x="381" y="212"/>
      <point x="394" y="199" type="curve"/>
      <point x="411" y="209"/>
      <point x="423" y="229"/>
      <point x="428" y="251" type="curve" smooth="yes"/>
      <point x="438" y="299"/>
      <point x="413" y="328"/>
      <point x="363" y="340" type="curve" smooth="yes"/>
      <point x="273" y="362" type="line" smooth="yes"/>
      <point x="251" y="367"/>
      <point x="232" y="375"/>
    </contour>
  </outline>
</glyph>
<glyph name="mu" format="2">
  <advance width="600"/>
  <unicode hex="00B5"/>
  <outline>
    <contour>
      <point x="127" y="520" type="line"/>
      <point x="319" y="520" type="line"/>
      <point x="241" y="153" type="line"/>
      <point x="247" y="142"/>
      <point x="259" y="128"/>
      <point x="289" y="128" type="curve" smooth="yes"/>
      <point x="329" y="128"/>
      <point x="358" y="153"/>
      <point x="366" y="192" type="curve" smooth="yes"/>
      <point x="436" y="520" type="line"/>
      <point x="616" y="520" type="line"/>
      <point x="538" y="156" type="line"/>
      <point x="532" y="126"/>
      <point x="539" y="113"/>
      <point x="567" y="113" type="curve"/>
      <point x="586" y="113" type="line"/>
      <point x="562" y="0" type="line"/>
      <point x="542" y="-4"/>
      <point x="499" y="-8"/>
      <point x="462" y="-8" type="curve"/>
      <point x="407" y="-8"/>
      <point x="353" y="15"/>
      <point x="352" y="58" type="curve"/>
      <point x="335" y="15"/>
      <point x="291" y="-8"/>
      <point x="251" y="-8" type="curve" smooth="yes"/>
      <point x="223" y="-8"/>
      <point x="205" y="-4"/>
      <point x="192" y="12" type="curve"/>
      <point x="203" y="-17"/>
      <point x="201" y="-35"/>
      <point x="197" y="-53" type="curve"/>
      <point x="167" y="-192" type="line"/>
      <point x="-25" y="-192" type="line"/>
    </contour>
  </outline>
</glyph>
<glyph name="AE" format="2">
  <advance width="600"/>
  <unicode hex="00C6"/>
  <outline>
    <contour>
      <point x="421" y="708" type="line"/>
      <point x="993" y="708" type="line"/>
      <point x="961" y="557" type="line"/>
      <point x="678" y="557" type="line"/>
      <point x="654" y="444" type="line"/>
      <point x="859" y="444" type="line"/>
      <point x="827" y="293" type="line"/>
      <point x="622" y="293" type="line"/>
      <point x="592" y="150" type="line"/>
      <point x="875" y="150" type="line"/>
      <point x="843" y="0" type="line"/>
      <point x="368" y="0" type="line"/>
      <point x="400" y="153" type="line"/>
      <point x="228" y="153" type="line"/>
      <point x="123" y="0" type="line"/>
      <point x="-79" y="0" type="line"/>
    </contour>
    <contour>
      <point x="486" y="556" type="line"/>
      <point x="315" y="304" type="line"/>
      <point x="432" y="304" type="line"/>
    </contour>
  </outline>
</glyph>
<glyph name="Thorn" format="2">
  <advance width="600"/>
  <unicode hex="00DE"/>
  <outline>
    <contour>
      <point x="139" y="708" type="line"/>
      <point x="331" y="708" type="line"/>
      <point x="307" y="592" type="line"/>
      <point x="373" y="592" type="line" smooth="yes"/>
      <point x="570" y="592"/>
      <point x="617" y="494"/>
      <point x="589" y="360" type="curve" smooth="yes"/>
      <point x="563" y="236"/>
      <point x="464" y="127"/>
      <point x="268" y="127" type="curve" smooth="yes"/>
      <point x="208" y="127" type="line"/>
      <point x="181" y="0" type="line"/>
      <point x="-11" y="0" type="line"/>
    </contour>
    <contour>
      <point x="277" y="452" type="line"/>
      <point x="238" y="267" type="line"/>
      <point x="294" y="267" type="line" smooth="yes"/>
      <point x="346" y="267"/>
      <point x="387" y="296"/>
      <point x="401" y="360" type="curve" smooth="yes"/>
      <point x="415" y="425"/>
      <point x="380" y="452"/>
      <point x="333" y="452" type="curve" smooth="yes"/>
    </contour>
  </outline>
</glyph>
<glyph name="ae" format="2">
  <advance width="600"/>
  <unicode hex="00E6"/>
  <outline>
    <contour>
      <point x="311" y="528" type="curve" smooth="yes"/>
      <point x="384" y="528"/>
      <point x="429" y="510"/>
      <point x="470" y="458" type="curve"/>
      <point x="504" y="498"/>
      <point x="580" y="528"/>
      <point x="650" y="528" type="curve" smooth="yes"/>
      <point x="804" y="528"/>
      <point x="895" y="453"/>
      <point x="860" y="286" type="curve" smooth="yes"/>
      <point x="854" y="259"/>
      <point x="844" y="229"/>
      <point x="833" y="212" type="curve"/>
      <point x="495" y="212" type="line"/>
      <point x="485" y="166"/>
      <point x="508" y="124"/>
      <point x="593" y="124" type="curve" smooth="yes"/>
      <point x="669" y="124"/>
      <point x="734" y="157"/>
      <point x="757" y="173" type="curve"/>
      <point x="801" y="65" type="line"/>
      <point x="730" y="30"/>
      <point x="649" y="-8"/>
      <point x="527" y="-8" type="curve" smooth="yes"/>
      <point x="451" y="-8"/>
      <point x="389" y="27"/>
      <point x="370" y="72" type="curve"/>
      <point x="299" y="12"/>
      <point x="240" y="-8"/>
      <point x="137" y="-8" type="curve" smooth="yes"/>
      <point x="27" y="-8"/>
      <point x="-20" y="52"/>
      <point x="2" y="156" type="curve" smooth="yes"/>
      <point x="23" y="255"/>
      <point x="123" y="316"/>
      <point x="263" y="316" type="curve" smooth="yes"/>
      <point x="338" y="316" type="line"/>
      <point x="342" y="333" type="line" smooth="yes"/>
      <point x="352" y="381"/>
      <point x="325" y="406"/>
      <point x="265" y="406" type="curve" smooth="yes"/>
      <point x="220" y="406"/>
      <point x="160" y="390"/>
      <point x="132" y="371" type="curve"/>
      <point x="98" y="473" type="line"/>
      <point x="163" y="510"/>
      <point x="232" y="528"/>
    </contour>
    <contour>
      <point x="314" y="205" type="line"/>
      <point x="250" y="205" type="line" smooth="yes"/>
      <point x="214" y="205"/>
      <point x="193" y="191"/>
      <point x="187" y="162" type="curve" smooth="yes"/>
      <point x="181" y="134"/>
      <point x="197" y="117"/>
      <point x="228" y="117" type="curve" smooth="yes"/>
      <point x="258" y="117"/>
      <point x="285" y="130"/>
      <point x="304" y="155" type="curve"/>
    </contour>
    <contour>
      <point x="619" y="399" type="curve" smooth="yes"/>
      <point x="568" y="399"/>
      <point x="528" y="368"/>
      <point x="516" y="310" type="curve"/>
      <point x="685" y="310" type="line"/>
      <point x="686" y="315" type="line" smooth="yes"/>
      <point x="698" y="371"/>
      <point x="670" y="399"/>
    </contour>
  </outline>
</glyph>
<glyph name="eth" format="2">
  <advance width="600"/>
  <unicode hex="00F0"/>
  <outline>
    <contour>
      <point x="222" y="716" type="curve"/>
      <point x="448" y="716" type="line"/>
      <point x="458" y="709"/>
      <point x="466" y="702"/>
      <point x="474" y="694" type="curve"/>
      <point x="638" y="716" type="line"/>
      <point x="615" y="608" type="line"/>
      <point x="552" y="599" type="line"/>
      <point x="577" y="499"/>
      <point x="589" y="405"/>
      <point x="562" y="276" type="curve" smooth="yes"/>
      <point x="527" y="109"/>
      <point x="407" y="-8"/>
      <point x="229" y="-8" type="curve" smooth="yes"/>
      <point x="38" y="-8"/>
      <point x="-30" y="98"/>
      <point x="7" y="274" type="curve" smooth="yes"/>
      <point x="38" y="422"/>
      <point x="151" y="528"/>
      <point x="275" y="528" type="curve" smooth="yes"/>
      <point x="341" y="528"/>
      <point x="366" y="500"/>
      <point x="384" y="468" type="curve"/>
      <point x="385" y="496"/>
      <point x="382" y="537"/>
      <point x="366" y="571" type="curve"/>
      <point x="164" y="541" type="line"/>
      <point x="188" y="656" type="line"/>
      <point x="285" y="669" type="line"/>
      <point x="264" y="689"/>
      <point x="243" y="705"/>
    </contour>
    <contour>
      <point x="312" y="393" type="curve" smooth="yes"/>
      <point x="250" y="393"/>
      <point x="214" y="344"/>
      <point x="198" y="269" type="curve" smooth="yes"/>
      <point x="182" y="192"/>
      <point x="198" y="152"/>
      <point x="257" y="152" type="curve" smooth="yes"/>
      <point x="317" y="152"/>
      <point x="354" y="197"/>
      <point x="369" y="268" type="curve" smooth="yes"/>
      <point x="376" y="299"/>
      <point x="376" y="320"/>
      <point x="376" y="351" type="curve"/>
      <point x="364" y="375"/>
      <point x="342" y="393"/>
    </contour>
  </outline>
</glyph>
<glyph name="thorn" format="2">
  <advance width="600"/>
  <unicode hex="00FE"/>
  <outline>
    <contour>
      <point x="160" y="708" type="line"/>
      <point x="348" y="708" type="line"/>
      <point x="295" y="461" type="line"/>
      <point x="332" y="505"/>
      <point x="385" y="528"/>
      <point x="447" y="528" type="curve" smooth="yes"/>
      <point x="586" y="528"/>
      <point x="661" y="416"/>
      <point x="628" y="259" type="curve" smooth="yes"/>
      <point x="594" y="100"/>
      <point x="478" y="-8"/>
      <point x="342" y="-8" type="curve" smooth="yes"/>
      <point x="274" y="-8"/>
      <point x="231" y="11"/>
      <point x="208" y="52" type="curve"/>
      <point x="156" y="-191" type="line"/>
      <point x="-32" y="-191" type="line"/>
    </contour>
    <contour>
      <point x="372" y="388" type="curve" smooth="yes"/>
      <point x="333" y="388"/>
      <point x="293" y="367"/>
      <point x="267" y="331" type="curve"/>
      <point x="237" y="190" type="line"/>
      <point x="248" y="152"/>
      <point x="278" y="128"/>
      <point x="312" y="128" type="curve" smooth="yes"/>
      <point x="376" y="128"/>
      <point x="417" y="172"/>
      <point x="436" y="260" type="curve" smooth="yes"/>
      <point x="453" y="341"/>
      <point x="431" y="388"/>
    </contour>
  </outline>
</glyph>
<glyph name="uni0302" format="2">
  <unicode hex="0302"/>
  <anchor x="4" y="840" name="_AccentCenter"/>
  <outline>
    <contour>
      <point x="-10" y="930" type="line"/>
      <point x="56" y="930" type="line"/>
      <point x="199" y="810" type="line"/>
      <point x="113" y="716" type="line"/>
      <point x="-4" y="806" type="line"/>
      <point x="-167" y="716" type="line"/>
      <point x="-205" y="810" type="line"/>
    </contour>
  </outline>
</glyph>
<glyph name="tildecomb" format="2">
  <unicode hex="0303"/>
  <anchor x="0" y="834" name="_AccentCenter"/>
  <outline>
    <contour>
      <point x="-65" y="920" type="curve" smooth="yes"/>
      <point x="14" y="920"/>
      <point x="4" y="873"/>
      <point x="63" y="873" type="curve" smooth="yes"/>
      <point x="95" y="873"/>
      <point x="121" y="889"/>
      <point x="127" y="917" type="curve"/>
      <point x="249" y="917" type="line"/>
      <point x="225" y="804"/>
      <point x="148" y="748"/>
      <point x="64" y="748" type="curve" smooth="yes"/>
      <point x="-9" y="748"/>
      <point x="-14" y="801"/>
      <point x="-63" y="801" type="curve" smooth="yes"/>
      <point x="-92" y="801"/>
      <point x="-115" y="786"/>
      <point x="-122" y="752" type="curve"/>
      <point x="-248" y="752" type="line"/>
      <point x="-228" y="844"/>
      <point x="-165" y="920"/>
    </contour>
  </outline>
</glyph>
<glyph name="uni0308" format="2">
  <advance width="0"/>
  <unicode hex="0308"/>
  <anchor x="5" y="871" name="_AccentCenter"/>
  <outline>
    <contour>
      <point x="-87" y="934" type="curve" smooth="yes"/>
      <point x="-40" y="934"/>
      <point x="-10" y="896"/>
      <point x="-20" y="849" type="curve" smooth="yes"/>
      <point x="-30" y="802"/>
      <point x="-76" y="764"/>
      <point x="-123" y="764" type="curve" smooth="yes"/>
      <point x="-170" y="764"/>
      <point x="-200" y="802"/>
      <point x="-190" y="849" type="curve" smooth="yes"/>
      <point x="-180" y="896"/>
      <point x="-134" y="934"/>
    </contour>
    <contour>
      <point x="123" y="934" type="curve" smooth="yes"/>
      <point x="170" y="934"/>
      <point x="200" y="896"/>
      <point x="190" y="849" type="curve" smooth="yes"/>
      <point x="180" y="802"/>
      <point x="134" y="764"/>
      <point x="87" y="764" type="curve" smooth="yes"/>
      <point x="40" y="764"/>
      <point x="10" y="802"/>
      <point x="20" y="849" type="curve" smooth="yes"/>
      <point x="30" y="896"/>
      <point x="76" y="934"/>
    </contour>
  </outline>
</glyph>
<glyph name="uni0327" format="2">
  <unicode hex="0327"/>
  <outline>
    <contour>
      <point x="-58" y="8" type="line"/>
      <point x="114" y="8" type="line"/>
      <point x="101" y="-51" type="line"/>
      <point x="76" y="-167"/>
      <point x="-24" y="-224"/>
      <point x="-126" y="-224" type="curve"/>
      <point x="-152" y="-224"/>
      <point x="-190" y="-218"/>
      <point x="-196" y="-215" type="curve"/>
      <point x="-153" y="-76" type="line"/>
      <point x="-98" y="-76" type="line"/>
      <point x="-83" y="-76"/>
      <point x="-75" y="-68"/>
      <point x="-72" y="-54" type="curve"/>
    </contour>
  </outline>
</glyph>
<glyph name="Euro" format="2">
  <advance width="600"/>
  <unicode hex="20AC"/>
  <outline>
    <contour>
      <point x="422" y="716" type="curve" smooth="yes"/>
      <point x="497" y="716"/>
      <point x="562" y="698"/>
      <point x="622" y="657" type="curve"/>
      <point x="538" y="528" type="line"/>
      <point x="504" y="552"/>
      <point x="462" y="564"/>
      <point x="411" y="564" type="curve" smooth="yes"/>
      <point x="308" y="564"/>
      <point x="224" y="480"/>
      <point x="224" y="294" type="curve" smooth="yes"/>
      <point x="224" y="212"/>
      <point x="252" y="144"/>
      <point x="352" y="144" type="curve" smooth="yes"/>
      <point x="395" y="144"/>
      <point x="435" y="151"/>
      <point x="489" y="179" type="curve"/>
      <point x="514" y="44" type="line"/>
      <point x="442" y="8"/>
      <point x="393" y="-8"/>
      <point x="305" y="-8" type="curve" smooth="yes"/>
      <point x="136" y="-8"/>
      <point x="32" y="102"/>
      <point x="32" y="274" type="curve" smooth="yes"/>
      <point x="32" y="549"/>
      <point x="188" y="716"/>
    </contour>
    <contour>
      <point x="49" y="507" type="line"/>
      <point x="527" y="507" type="line"/>
      <point x="444" y="363" type="line"/>
      <point x="19" y="363" type="line"/>
    </contour>
    <contour>
      <point x="11" y="328" type="line"/>
      <point x="423" y="328" type="line"/>
      <point x="340" y="184" type="line"/>
      <point x="-19" y="184" type="line"/>
    </contour>
  </outline>
</glyph>
<glyph name="a.ss01" format="2">
  <advance width="512"/>
  <outline>
    <contour>
      <point x="309" y="528" type="curve" smooth="yes"/>
      <point x="477" y="528"/>
      <point x="532" y="452"/>
      <point x="501" y="307" type="curve" smooth="yes"/>
      <point x="436" y="0" type="line"/>
      <point x="250" y="0" type="line"/>
      <point x="265" y="70" type="line"/>
      <point x="241" y="39"/>
      <point x="184" y="-8"/>
      <point x="111" y="-8" type="curve" smooth="yes"/>
      <point x="5" y="-8"/>
      <point x="-24" y="56"/>
      <point x="-5" y="147" type="curve" smooth="yes"/>
      <point x="16" y="246"/>
      <point x="92" y="310"/>
      <point x="243" y="310" type="curve" smooth="yes"/>
      <point x="316" y="310" type="line"/>
      <point x="319" y="325" type="line" smooth="yes"/>
      <point x="329" y="371"/>
      <point x="314" y="399"/>
      <point x="248" y="399" type="curve" smooth="yes"/>
      <point x="192" y="399"/>
      <point x="143" y="385"/>
      <point x="115" y="375" type="curve"/>
      <point x="107" y="497" type="line"/>
      <point x="168" y="518"/>
      <point x="223" y="528"/>
    </contour>
    <contour>
      <point x="292" y="199" type="line"/>
      <point x="250" y="199" type="line" smooth="yes"/>
      <point x="210" y="199"/>
      <point x="189" y="188"/>
      <point x="183" y="159" type="curve" smooth="yes"/>
      <point x="177" y="132"/>
      <point x="185" y="117"/>
      <point x="221" y="117" type="curve" smooth="yes"/>
      <point x="243" y="117"/>
      <point x="264" y="130"/>
      <point x="281" y="148" type="curve"/>
    </contour>
  </outline>
</glyph>
<glyph name="equal_equal.liga" format="2">
  <advance width="1200"/>
  <outline>
    <contour>
      <point x="176" y="454" type="line"/>
      <point x="1096" y="454" type="line"/>
      <point x="1068" y="324" type="line"/>
      <point x="148" y="324" type="line"/>
    </contour>
    <contour>
      <point x="132" y="248" type="line"/>
      <point x="1052" y="248" type="line"/>
      <point x="1024" y="118" type="line"/>
      <point x="104" y="118" type="line"/>
    </contour>
  </outline>
</glyph>
<glyph name="r.ss01" format="2">
  <advance width="600"/>
  <outline>
    <contour>
      <point x="67" y="520" type="line"/>
      <point x="332" y="520" type="line"/>
      <point x="308" y="403" type="line"/>
      <point x="352" y="467"/>
      <point x="420" y="528"/>
      <point x="525" y="528" type="curve" smooth="yes"/>
      <point x="568" y="528"/>
      <point x="588" y="522"/>
      <point x="610" y="514" type="curve"/>
      <point x="540" y="357" type="line"/>
      <point x="527" y="361"/>
      <point x="514" y="366"/>
      <point x="482" y="366" type="curve" smooth="yes"/>
      <point x="416" y="366"/>
      <point x="368" y="332"/>
      <point x="331" y="274" type="curve"/>
      <point x="273" y="0" type="line"/>
      <point x="81" y="0" type="line"/>
      <point x="157" y="356" type="line"/>
      <point x="45" y="356" type="line"/>
    </contour>
  </outline>
</glyph>
